<?xml version="1.0" encoding="UTF-8" standalone="no"?>
<svg
   height="0.78272033in"
   version="1.1"
   width="0.52916664in"
   id="svg265"
   sodipodi:docname="dice-tower-logo.svg"
   inkscape:version="1.1.1 (50ffc5b540, 2022-01-11)"
   inkscape:export-filename="/home/ed/dev/dor-wargame-maps/Cards/dice-tower-engrave.png"
   inkscape:export-xdpi="300.00012"
   inkscape:export-ydpi="300.00012"
   xmlns:inkscape="http://www.inkscape.org/namespaces/inkscape"
   xmlns:sodipodi="http://sodipodi.sourceforge.net/DTD/sodipodi-0.dtd"
   xmlns="http://www.w3.org/2000/svg"
   xmlns:svg="http://www.w3.org/2000/svg"
   xmlns:rdf="http://www.w3.org/1999/02/22-rdf-syntax-ns#"
   xmlns:cc="http://creativecommons.org/ns#"
   xmlns:dc="http://purl.org/dc/elements/1.1/">
  <metadata
     id="metadata269">
    <rdf:RDF>
      <cc:Work
         rdf:about="">
        <dc:format>image/svg+xml</dc:format>
        <dc:type
           rdf:resource="http://purl.org/dc/dcmitype/StillImage" />
      </cc:Work>
    </rdf:RDF>
  </metadata>
  <sodipodi:namedview
     pagecolor="#ffffff"
     bordercolor="#666666"
     borderopacity="1"
     objecttolerance="10"
     gridtolerance="10"
     guidetolerance="10"
     inkscape:pageopacity="0"
     inkscape:pageshadow="2"
     inkscape:window-width="1848"
     inkscape:window-height="1016"
     id="namedview267"
     showgrid="false"
     showguides="true"
     inkscape:snap-bbox="true"
     inkscape:snap-bbox-edge-midpoints="false"
     inkscape:snap-nodes="false"
     inkscape:zoom="10.2277"
     inkscape:cx="25.42116"
     inkscape:cy="37.593985"
     inkscape:window-x="72"
     inkscape:window-y="27"
     inkscape:window-maximized="1"
     inkscape:current-layer="svg265"
     inkscape:pagecheckerboard="0"
     inkscape:snap-smooth-nodes="true"
     inkscape:snap-others="false"
     fit-margin-top="0"
     fit-margin-left="0"
     fit-margin-right="0"
     fit-margin-bottom="0"
     units="in"
     inkscape:document-units="mm"
     inkscape:guide-bbox="true"
     inkscape:snap-bbox-midpoints="true"
     inkscape:bbox-nodes="false">
    <sodipodi:guide
       position="168.93518,89.813916"
       orientation="1,0"
       id="guide3137" />
    <sodipodi:guide
       position="48.492522,-59.978214"
       orientation="0,-1"
       id="guide3139" />
    <sodipodi:guide
       position="58.821961,97.374116"
       orientation="1,0"
       id="guide3342" />
    <sodipodi:guide
       position="278.72957,95.654456"
       orientation="1,0"
       id="guide3344" />
    <sodipodi:guide
       position="278.72957,97.372976"
       orientation="0,-1"
       id="guide3346" />
    <sodipodi:guide
       position="279.04332,-217.32822"
       orientation="0,-1"
       id="guide3348" />
    <sodipodi:guide
       position="-99.155444,-169.30204"
       orientation="1,0"
       id="guide32021" />
    <sodipodi:guide
       position="-96.534894,-166.37432"
       orientation="0,-1"
       id="guide32160" />
    <sodipodi:guide
       position="168.93518,89.813916"
       orientation="0,-1"
       id="guide7725" />
    <sodipodi:guide
       position="66.381017,-59.978214"
       orientation="1,0"
       id="guide7727" />
    <sodipodi:guide
       position="271.17051,-59.978214"
       orientation="1,0"
       id="guide7729" />
    <sodipodi:guide
       position="168.93518,-209.76917"
       orientation="0,-1"
       id="guide7731" />
    <sodipodi:guide
       position="168.93518,93.593446"
       orientation="0,-1"
       id="guide46402" />
    <sodipodi:guide
       position="62.601489,-59.978214"
       orientation="1,0"
       id="guide46534" />
    <sodipodi:guide
       position="168.93518,-213.5487"
       orientation="0,-1"
       id="guide46536" />
    <sodipodi:guide
       position="274.95004,-59.978214"
       orientation="1,0"
       id="guide46538" />
    <sodipodi:guide
       position="168.77576,-41.114844"
       orientation="0,-1"
       id="guide75706" />
    <sodipodi:guide
       position="168.77576,65.246986"
       orientation="0,-1"
       id="guide75710" />
  </sodipodi:namedview>
  <defs
     id="defs2">
    <rect
       x="1865.6647"
       y="904.06659"
       width="378.06421"
       height="205.46968"
       id="rect25970" />
    <marker
       style="overflow:visible"
       id="Arrow1Send"
       refX="0"
       refY="0"
       orient="auto"
       inkscape:stockid="Arrow1Send"
       inkscape:isstock="true">
      <path
         transform="matrix(-0.2,0,0,-0.2,-1.2,0)"
         style="fill:context-stroke;fill-rule:evenodd;stroke:context-stroke;stroke-width:1pt"
         d="M 0,0 5,-5 -12.5,0 5,5 Z"
         id="path54595" />
    </marker>
    <marker
       style="overflow:visible"
       id="Arrow1Sstart"
       refX="0"
       refY="0"
       orient="auto"
       inkscape:stockid="Arrow1Sstart"
       inkscape:isstock="true">
      <path
         transform="matrix(0.2,0,0,0.2,1.2,0)"
         style="fill:context-stroke;fill-rule:evenodd;stroke:context-stroke;stroke-width:1pt"
         d="M 0,0 5,-5 -12.5,0 5,5 Z"
         id="path54592" />
    </marker>
    <marker
       style="overflow:visible"
       id="Arrow1Lend"
       refX="0"
       refY="0"
       orient="auto"
       inkscape:stockid="Arrow1Lend"
       inkscape:isstock="true">
      <path
         transform="matrix(-0.8,0,0,-0.8,-10,0)"
         style="fill:context-stroke;fill-rule:evenodd;stroke:context-stroke;stroke-width:1pt"
         d="M 0,0 5,-5 -12.5,0 5,5 Z"
         id="path54583" />
    </marker>
    <marker
       style="overflow:visible"
       id="Arrow1Lstart"
       refX="0"
       refY="0"
       orient="auto"
       inkscape:stockid="Arrow1Lstart"
       inkscape:isstock="true">
      <path
         transform="matrix(0.8,0,0,0.8,10,0)"
         style="fill:context-stroke;fill-rule:evenodd;stroke:context-stroke;stroke-width:1pt"
         d="M 0,0 5,-5 -12.5,0 5,5 Z"
         id="path54580" />
    </marker>
    <clipPath
       clipPathUnits="userSpaceOnUse"
       id="clipPath4295">
      <path
         d="M 0,266.4 H 195.84 V 0 H 0 Z"
         id="path4293" />
    </clipPath>
    <clipPath
       clipPathUnits="userSpaceOnUse"
       id="clipPath4331">
      <path
         d="M 0,266.4 H 195.84 V 0 H 0 Z"
         id="path4329" />
    </clipPath>
    <clipPath
       clipPathUnits="userSpaceOnUse"
       id="clipPath4355">
      <path
         d="M 0,266.4 H 195.84 V 0 H 0 Z"
         id="path4353" />
    </clipPath>
    <clipPath
       clipPathUnits="userSpaceOnUse"
       id="clipPath4395">
      <path
         d="M 0,266.4 H 195.84 V 0 H 0 Z"
         id="path4393" />
    </clipPath>
    <clipPath
       clipPathUnits="userSpaceOnUse"
       id="clipPath4405">
      <path
         d="m 132.504,60.883 c -0.187,-0.176 -0.259,-0.459 -0.259,-0.772 v 0 -0.104 h -0.308 v -0.303 h 0.308 v -1.902 h 0.401 v 1.902 h 0.529 v 0.303 h -0.535 v 0.118 c 0,0.338 0.092,0.64 0.429,0.64 v 0 c 0.118,0 0.199,-0.022 0.26,-0.052 v 0 l 0.05,0.312 c -0.077,0.031 -0.196,0.062 -0.343,0.062 v 0 c -0.182,0 -0.38,-0.057 -0.532,-0.204 m -31.319,0 c -0.189,-0.176 -0.263,-0.459 -0.263,-0.772 v 0 -0.104 h -0.304 v -0.303 h 0.304 v -1.902 h 0.405 v 1.902 h 0.528 v 0.303 h -0.536 v 0.118 c 0,0.338 0.092,0.64 0.431,0.64 v 0 c 0.119,0 0.197,-0.022 0.258,-0.052 v 0 l 0.053,0.312 c -0.08,0.031 -0.196,0.062 -0.347,0.062 v 0 c -0.178,0 -0.38,-0.057 -0.529,-0.204 m 33.42,-3.081 h 0.403 v 3.236 h -0.403 z m -38.603,3.235 v -2.663 c 0,-0.198 -0.005,-0.423 -0.018,-0.572 v 0 h 0.346 l 0.026,0.365 h 0.008 c 0.169,-0.293 0.419,-0.415 0.74,-0.415 v 0 c 0.491,0 0.992,0.392 0.992,1.187 v 0 c 0,0.663 -0.383,1.119 -0.93,1.119 v 0 c -0.356,0 -0.612,-0.155 -0.752,-0.399 v 0 h -0.01 v 1.378 z m 0.417,-2.498 c -0.011,0.049 -0.015,0.097 -0.015,0.147 v 0 0.397 c 0,0.065 0.01,0.118 0.024,0.169 v 0 c 0.076,0.302 0.333,0.491 0.606,0.491 v 0 c 0.429,0 0.657,-0.375 0.657,-0.825 v 0 c 0,-0.503 -0.249,-0.847 -0.673,-0.847 v 0 c -0.284,0 -0.522,0.191 -0.599,0.468 m -8.395,-0.737 h 0.401 v 3.236 h -0.401 z m -16.533,3.235 v -3.235 h 0.399 v 1.333 c 0,0.076 0.006,0.135 0.028,0.189 v 0 c 0.077,0.221 0.278,0.402 0.539,0.402 v 0 c 0.378,0 0.51,-0.297 0.51,-0.654 v 0 -1.27 h 0.401 v 1.314 c 0,0.759 -0.473,0.942 -0.77,0.942 v 0 c -0.151,0 -0.292,-0.042 -0.41,-0.113 v 0 C 72.065,59.882 71.965,59.777 71.9,59.663 v 0 h -0.01 v 1.374 z m -9.594,-3.235 h 0.401 v 3.236 h -0.401 z m 71.581,2.871 c 0,-0.142 0.102,-0.258 0.251,-0.258 v 0 h 0.008 c 0.157,0 0.256,0.116 0.256,0.258 v 0 c 0,0.142 -0.099,0.257 -0.254,0.257 v 0 c -0.156,0 -0.261,-0.115 -0.261,-0.257 m -18.018,0 c 0,-0.142 0.1,-0.258 0.251,-0.258 v 0 h 0.005 c 0.159,0 0.259,0.116 0.259,0.258 v 0 c 0,0.142 -0.1,0.257 -0.254,0.257 v 0 c -0.155,0 -0.261,-0.115 -0.261,-0.257 m -41.499,0 c 0,-0.142 0.099,-0.258 0.251,-0.258 v 0 h 0.004 c 0.16,0 0.26,0.116 0.26,0.258 v 0 c 0,0.142 -0.1,0.257 -0.256,0.257 v 0 c -0.154,0 -0.259,-0.115 -0.259,-0.257 m -17.404,0.162 v -3.023 c 0.206,-0.028 0.437,-0.037 0.725,-0.037 v 0 c 0.597,0 1.072,0.155 1.363,0.442 v 0 c 0.283,0.282 0.443,0.693 0.443,1.194 v 0 c 0,0.498 -0.16,0.857 -0.438,1.107 v 0 c -0.268,0.251 -0.674,0.38 -1.245,0.38 v 0 c -0.314,0 -0.602,-0.029 -0.848,-0.063 m 0.401,-2.724 v 2.43 c 0.106,0.023 0.259,0.04 0.466,0.04 v 0 c 0.838,0 1.248,-0.448 1.245,-1.184 v 0 c 0,-0.825 -0.458,-1.303 -1.298,-1.303 v 0 c -0.003,0 -0.008,0 -0.011,0 v 0 c -0.154,0 -0.302,0 -0.402,0.017 m 34.402,2.304 v -0.408 h -0.339 v -0.303 h 0.339 v -1.205 c 0,-0.259 0.045,-0.453 0.156,-0.58 v 0 c 0.096,-0.104 0.244,-0.167 0.433,-0.167 v 0 c 0.155,0 0.279,0.027 0.357,0.054 v 0 l -0.019,0.305 c -0.059,-0.017 -0.122,-0.024 -0.232,-0.024 v 0 c -0.224,0 -0.303,0.153 -0.303,0.426 v 0 1.191 h 0.576 v 0.303 h -0.576 v 0.529 z m -13.409,0 V 60.007 H 77.61 v -0.303 h 0.341 v -1.205 c 0,-0.259 0.045,-0.453 0.155,-0.58 v 0 c 0.096,-0.104 0.249,-0.167 0.433,-0.167 v 0 c 0.155,0 0.278,0.027 0.355,0.054 v 0 l -0.018,0.305 c -0.059,-0.017 -0.122,-0.024 -0.232,-0.024 v 0 c -0.223,0 -0.301,0.153 -0.301,0.426 v 0 1.191 h 0.575 v 0.303 h -0.575 v 0.529 z m -7.879,0 V 60.007 H 69.73 v -0.303 h 0.342 v -1.205 c 0,-0.259 0.044,-0.453 0.156,-0.58 v 0 c 0.094,-0.104 0.246,-0.167 0.432,-0.167 v 0 c 0.156,0 0.279,0.027 0.355,0.054 v 0 l -0.017,0.305 c -0.059,-0.017 -0.124,-0.024 -0.233,-0.024 v 0 c -0.223,0 -0.3,0.153 -0.3,0.426 v 0 1.191 h 0.574 v 0.303 h -0.574 v 0.529 z m -4.732,0 v -0.408 h -0.342 v -0.303 h 0.342 v -1.205 c 0,-0.259 0.045,-0.453 0.154,-0.58 v 0 c 0.097,-0.104 0.247,-0.167 0.433,-0.167 v 0 c 0.156,0 0.278,0.027 0.357,0.054 v 0 l -0.02,0.305 c -0.059,-0.017 -0.122,-0.024 -0.233,-0.024 v 0 c -0.221,0 -0.3,0.153 -0.3,0.426 v 0 1.191 h 0.575 v 0.303 h -0.575 v 0.529 z m 70.175,-1.547 c 0,-0.661 0.41,-1.112 1.083,-1.112 v 0 c 0.351,0 0.597,0.077 0.739,0.142 v 0 l -0.073,0.282 c -0.145,-0.059 -0.323,-0.109 -0.611,-0.109 v 0 c -0.403,0 -0.743,0.224 -0.753,0.766 v 0 l 1.546,-0.006 c 0.01,0.046 0.015,0.11 0.015,0.192 v 0 c 0,0.406 -0.189,1.041 -0.91,1.041 v 0 c -0.641,0 -1.036,-0.524 -1.036,-1.196 m 1.007,0.909 c 0.446,0 0.554,-0.403 0.552,-0.653 v 0 h -1.169 c 0.033,0.278 0.204,0.653 0.617,0.653 m -30.551,-0.909 c 0,-0.661 0.413,-1.112 1.087,-1.112 v 0 c 0.35,0 0.596,0.077 0.738,0.142 v 0 l -0.075,0.282 c -0.144,-0.059 -0.323,-0.109 -0.608,-0.109 v 0 c -0.404,0 -0.746,0.224 -0.755,0.766 v 0 l 1.548,-0.006 c 0.009,0.046 0.011,0.11 0.011,0.192 v 0 c 0,0.406 -0.186,1.041 -0.904,1.041 v 0 c -0.646,0 -1.042,-0.524 -1.042,-1.196 m 1.009,0.909 c 0.448,0 0.554,-0.403 0.549,-0.653 v 0 h -1.166 c 0.032,0.278 0.207,0.653 0.617,0.653 m -8.536,-0.909 c 0,-0.661 0.408,-1.112 1.083,-1.112 v 0 c 0.353,0 0.599,0.077 0.738,0.142 v 0 l -0.072,0.282 c -0.144,-0.059 -0.323,-0.109 -0.611,-0.109 v 0 c -0.4,0 -0.743,0.224 -0.753,0.766 v 0 l 1.548,-0.006 c 0.008,0.046 0.013,0.11 0.013,0.192 v 0 c 0,0.406 -0.187,1.041 -0.908,1.041 v 0 c -0.643,0 -1.038,-0.524 -1.038,-1.196 m 1.006,0.909 c 0.447,0 0.557,-0.403 0.552,-0.653 v 0 h -1.168 c 0.032,0.278 0.206,0.653 0.616,0.653 m -6.857,-0.909 c 0,-0.661 0.409,-1.112 1.084,-1.112 v 0 c 0.351,0 0.598,0.077 0.739,0.142 v 0 l -0.073,0.282 c -0.145,-0.059 -0.324,-0.109 -0.611,-0.109 v 0 c -0.401,0 -0.743,0.224 -0.75,0.766 v 0 l 1.543,-0.006 c 0.009,0.046 0.014,0.11 0.014,0.192 v 0 c 0,0.406 -0.187,1.041 -0.907,1.041 v 0 c -0.643,0 -1.039,-0.524 -1.039,-1.196 m 1.008,0.909 c 0.445,0 0.555,-0.403 0.551,-0.653 v 0 h -1.168 c 0.033,0.278 0.206,0.653 0.617,0.653 M 79.182,58.868 c 0,-0.661 0.41,-1.112 1.084,-1.112 v 0 c 0.353,0 0.599,0.077 0.741,0.142 v 0 l -0.073,0.282 c -0.146,-0.059 -0.323,-0.109 -0.611,-0.109 v 0 c -0.401,0 -0.745,0.224 -0.754,0.766 v 0 l 1.546,-0.006 c 0.01,0.046 0.014,0.11 0.014,0.192 v 0 c 0,0.406 -0.187,1.041 -0.907,1.041 v 0 c -0.644,0 -1.04,-0.524 -1.04,-1.196 m 1.01,0.909 c 0.445,0 0.553,-0.403 0.551,-0.653 v 0 h -1.169 c 0.032,0.278 0.206,0.653 0.618,0.653 M 66.57,58.868 c 0,-0.661 0.411,-1.112 1.086,-1.112 v 0 c 0.351,0 0.597,0.077 0.737,0.142 v 0 L 68.32,58.18 c -0.145,-0.059 -0.323,-0.109 -0.61,-0.109 v 0 c -0.402,0 -0.743,0.224 -0.753,0.766 v 0 l 1.546,-0.006 c 0.009,0.046 0.014,0.11 0.014,0.192 v 0 c 0,0.406 -0.187,1.041 -0.907,1.041 v 0 c -0.643,0 -1.04,-0.524 -1.04,-1.196 m 1.007,0.909 c 0.448,0 0.557,-0.403 0.552,-0.653 v 0 h -1.166 c 0.03,0.278 0.204,0.653 0.614,0.653 m -4.774,-0.909 c 0,-0.661 0.411,-1.112 1.088,-1.112 v 0 c 0.35,0 0.595,0.077 0.737,0.142 v 0 l -0.074,0.282 c -0.146,-0.059 -0.323,-0.109 -0.609,-0.109 v 0 c -0.403,0 -0.743,0.224 -0.753,0.766 v 0 l 1.545,-0.006 c 0.009,0.046 0.015,0.11 0.015,0.192 v 0 c 0,0.406 -0.188,1.041 -0.91,1.041 v 0 c -0.64,0 -1.039,-0.524 -1.039,-1.196 m 1.01,0.909 c 0.446,0 0.555,-0.403 0.55,-0.653 v 0 h -1.168 c 0.035,0.278 0.205,0.653 0.618,0.653 m -4.36,-0.909 c 0,-0.661 0.41,-1.112 1.084,-1.112 v 0 c 0.352,0 0.599,0.077 0.74,0.142 v 0 L 61.203,58.18 C 61.058,58.121 60.88,58.071 60.592,58.071 v 0 c -0.401,0 -0.744,0.224 -0.751,0.766 v 0 l 1.544,-0.006 c 0.009,0.046 0.015,0.11 0.015,0.192 v 0 c 0,0.406 -0.187,1.041 -0.907,1.041 v 0 c -0.645,0 -1.04,-0.524 -1.04,-1.196 m 1.007,0.909 c 0.448,0 0.556,-0.403 0.552,-0.653 v 0 h -1.167 c 0.031,0.278 0.205,0.653 0.615,0.653 m 77.407,-0.366 c 0,-0.263 0.186,-0.479 0.588,-0.625 v 0 c 0.291,-0.109 0.405,-0.212 0.405,-0.405 v 0 c 0,-0.187 -0.139,-0.328 -0.425,-0.328 v 0 c -0.2,0 -0.409,0.082 -0.532,0.154 v 0 l -0.093,-0.301 c 0.153,-0.091 0.374,-0.154 0.618,-0.154 v 0 c 0.514,0 0.818,0.274 0.818,0.665 v 0 c 0,0.333 -0.199,0.524 -0.579,0.666 v 0 c -0.286,0.109 -0.414,0.19 -0.414,0.378 v 0 c 0,0.164 0.128,0.301 0.366,0.301 v 0 c 0.204,0 0.363,-0.078 0.45,-0.126 v 0 l 0.095,0.285 c -0.117,0.078 -0.314,0.137 -0.537,0.137 v 0 c -0.47,0 -0.76,-0.292 -0.76,-0.647 m -7.747,0.164 h -0.012 l -0.023,0.432 h -0.351 c 0.016,-0.205 0.021,-0.426 0.021,-0.687 v 0 l -0.005,-1.518 h 0.403 v 1.177 c 0,0.068 0.004,0.131 0.012,0.191 v 0 c 0.055,0.295 0.256,0.51 0.537,0.51 v 0 c 0.057,0 0.097,-0.003 0.142,-0.009 v 0 0.373 c -0.035,0.009 -0.068,0.014 -0.11,0.014 v 0 c -0.268,0 -0.514,-0.187 -0.614,-0.483 m -5.544,-0.689 c 0,-0.697 0.465,-1.134 1.057,-1.134 v 0 h 0.004 c 0.525,0 1.095,0.356 1.095,1.176 v 0 c 0,0.67 -0.431,1.13 -1.062,1.13 v 0 c -0.607,0 -1.094,-0.433 -1.094,-1.172 m 0.405,0.014 c 0,0.42 0.205,0.856 0.674,0.856 v 0 c 0.475,0 0.662,-0.468 0.662,-0.842 v 0 c 0,-0.499 -0.286,-0.861 -0.672,-0.861 v 0 h -0.002 c -0.391,0 -0.662,0.364 -0.662,0.847 m -6.023,-0.009 c 0,-0.616 0.39,-1.079 0.939,-1.079 v 0 c 0.341,0 0.582,0.162 0.701,0.368 v 0 h 0.008 v -0.242 c 0,-0.561 -0.298,-0.774 -0.709,-0.774 v 0 c -0.276,0 -0.501,0.081 -0.646,0.178 v 0 l -0.102,-0.31 c 0.179,-0.118 0.47,-0.184 0.734,-0.184 v 0 c 0.278,0 0.588,0.069 0.807,0.265 v 0 c 0.21,0.196 0.314,0.503 0.314,1.013 v 0 1.279 c 0,0.272 0.006,0.45 0.019,0.602 v 0 h -0.357 l -0.013,-0.327 h -0.01 c -0.099,0.182 -0.303,0.378 -0.686,0.378 v 0 c -0.512,0 -0.999,-0.419 -0.999,-1.167 m 0.407,0.019 c 0,0.515 0.272,0.84 0.655,0.84 v 0 c 0.296,0 0.486,-0.192 0.561,-0.43 v 0 c 0.017,-0.054 0.023,-0.114 0.023,-0.178 v 0 -0.397 c 0,-0.073 -0.01,-0.151 -0.033,-0.212 v 0 c -0.082,-0.262 -0.306,-0.415 -0.556,-0.415 v 0 c -0.428,0 -0.65,0.363 -0.65,0.792 m -2.409,0.739 h -0.01 l -0.022,0.358 h -0.356 c 0.013,-0.18 0.018,-0.366 0.018,-0.596 v 0 -1.609 h 0.4 v 1.333 c 0,0.062 0.01,0.135 0.03,0.185 v 0 c 0.072,0.225 0.279,0.409 0.537,0.409 v 0 c 0.378,0 0.51,-0.3 0.51,-0.655 v 0 -1.272 h 0.403 v 1.316 c 0,0.757 -0.476,0.94 -0.781,0.94 v 0 c -0.365,0 -0.621,-0.203 -0.729,-0.409 m -5.787,0.219 0.092,-0.27 c 0.154,0.106 0.371,0.164 0.577,0.164 v 0 c 0.452,0.004 0.504,-0.33 0.504,-0.51 v 0 -0.046 c -0.854,0.005 -1.33,-0.288 -1.33,-0.821 v 0 c 0,-0.319 0.233,-0.633 0.676,-0.633 v 0 c 0.317,0 0.557,0.154 0.677,0.328 v 0 h 0.012 l 0.035,-0.278 h 0.363 c -0.025,0.149 -0.032,0.338 -0.032,0.528 v 0 0.825 c 0,0.443 -0.164,0.903 -0.845,0.903 v 0 c -0.279,0 -0.547,-0.078 -0.729,-0.19 m 0.246,-1.437 c 0,0.428 0.497,0.508 0.935,0.497 v 0 -0.381 c 0,-0.044 -0.006,-0.089 -0.017,-0.13 v 0 c -0.065,-0.188 -0.252,-0.368 -0.542,-0.368 v 0 c -0.202,0 -0.376,0.118 -0.376,0.382 m -2.125,0.98 c 0,-0.263 0.189,-0.479 0.589,-0.625 v 0 c 0.293,-0.109 0.405,-0.212 0.405,-0.405 v 0 c 0,-0.187 -0.137,-0.328 -0.423,-0.328 v 0 c -0.2,0 -0.412,0.082 -0.534,0.154 v 0 l -0.095,-0.301 c 0.157,-0.091 0.378,-0.154 0.619,-0.154 v 0 c 0.515,0 0.821,0.274 0.821,0.665 v 0 c 0,0.333 -0.2,0.524 -0.578,0.666 v 0 c -0.288,0.109 -0.416,0.19 -0.416,0.378 v 0 c 0,0.164 0.128,0.301 0.365,0.301 v 0 c 0.206,0 0.365,-0.078 0.45,-0.126 v 0 l 0.097,0.285 c -0.118,0.078 -0.314,0.137 -0.539,0.137 v 0 c -0.471,0 -0.761,-0.292 -0.761,-0.647 m -4.254,0.164 h -0.012 l -0.02,0.432 h -0.351 c 0.013,-0.205 0.02,-0.426 0.02,-0.687 v 0 l -0.007,-1.518 h 0.403 v 1.177 c 0,0.068 0.004,0.131 0.012,0.191 v 0 c 0.054,0.295 0.259,0.51 0.539,0.51 v 0 c 0.054,0 0.098,-0.003 0.142,-0.009 v 0 0.373 c -0.037,0.009 -0.07,0.014 -0.112,0.014 v 0 c -0.268,0 -0.515,-0.187 -0.614,-0.483 m -3.033,-0.689 c 0,-0.697 0.467,-1.134 1.06,-1.134 v 0 h 0.004 c 0.525,0 1.094,0.356 1.094,1.176 v 0 c 0,0.67 -0.43,1.13 -1.064,1.13 v 0 c -0.607,0 -1.094,-0.433 -1.094,-1.172 m 0.408,0.014 c 0,0.42 0.204,0.856 0.674,0.856 v 0 c 0.474,0 0.661,-0.468 0.661,-0.842 v 0 c 0,-0.499 -0.286,-0.861 -0.672,-0.861 v 0 h -0.001 c -0.391,0 -0.662,0.364 -0.662,0.847 m -13.339,0.968 0.091,-0.27 c 0.155,0.106 0.37,0.164 0.58,0.164 v 0 c 0.45,0.004 0.501,-0.33 0.501,-0.51 v 0 -0.046 c -0.852,0.005 -1.327,-0.288 -1.327,-0.821 v 0 c 0,-0.319 0.229,-0.633 0.673,-0.633 v 0 c 0.316,0 0.558,0.154 0.676,0.328 v 0 h 0.014 l 0.037,-0.278 h 0.36 c -0.022,0.149 -0.033,0.338 -0.033,0.528 v 0 0.825 c 0,0.443 -0.163,0.903 -0.842,0.903 v 0 c -0.279,0 -0.547,-0.078 -0.73,-0.19 m 0.246,-1.437 c 0,0.428 0.497,0.508 0.935,0.497 v 0 -0.381 c 0,-0.044 -0.006,-0.089 -0.019,-0.13 v 0 c -0.061,-0.188 -0.25,-0.368 -0.542,-0.368 v 0 c -0.2,0 -0.374,0.118 -0.374,0.382 m -3.517,1.201 h -0.008 l -0.02,0.375 H 85.41 c 0.014,-0.209 0.02,-0.435 0.02,-0.719 v 0 -2.387 h 0.399 v 1.198 h 0.011 c 0.131,-0.22 0.383,-0.347 0.679,-0.347 v 0 c 0.516,0 1.003,0.392 1.003,1.187 v 0 c 0,0.67 -0.402,1.119 -0.939,1.119 v 0 c -0.356,0 -0.62,-0.155 -0.782,-0.426 m 0.048,-1.096 c -0.015,0.052 -0.02,0.112 -0.02,0.164 v 0 0.383 c 0,0.052 0.014,0.109 0.025,0.164 v 0 c 0.078,0.3 0.335,0.492 0.611,0.492 v 0 c 0.423,0 0.652,-0.379 0.652,-0.821 v 0 c 0,-0.503 -0.246,-0.852 -0.671,-0.852 v 0 c -0.282,0 -0.53,0.192 -0.597,0.47 m -2.28,1.367 c -0.091,-0.068 -0.183,-0.16 -0.251,-0.285 v 0 h -0.009 c -0.096,0.257 -0.324,0.44 -0.62,0.44 v 0 c -0.37,0 -0.574,-0.196 -0.698,-0.406 v 0 h -0.014 l -0.018,0.355 h -0.351 c 0.01,-0.18 0.018,-0.366 0.018,-0.596 v 0 -1.609 h 0.393 v 1.333 c 0,0.066 0.01,0.135 0.032,0.193 v 0 c 0.064,0.203 0.25,0.401 0.497,0.401 v 0 c 0.305,0 0.46,-0.251 0.46,-0.605 v 0 -1.322 h 0.391 v 1.368 c 0,0.067 0.014,0.141 0.033,0.199 v 0 c 0.073,0.191 0.246,0.36 0.479,0.36 v 0 c 0.318,0 0.478,-0.251 0.478,-0.679 v 0 -1.248 h 0.392 v 1.299 c 0,0.767 -0.432,0.957 -0.729,0.957 v 0 c -0.209,0 -0.352,-0.055 -0.483,-0.155 m -8.572,-0.492 c 0,-0.263 0.186,-0.479 0.588,-0.625 v 0 c 0.29,-0.109 0.406,-0.212 0.406,-0.405 v 0 c 0,-0.187 -0.137,-0.328 -0.423,-0.328 v 0 c -0.202,0 -0.412,0.082 -0.535,0.154 v 0 l -0.094,-0.301 c 0.153,-0.091 0.377,-0.154 0.619,-0.154 v 0 c 0.514,0 0.82,0.274 0.82,0.665 v 0 c 0,0.333 -0.2,0.524 -0.578,0.666 v 0 c -0.288,0.109 -0.417,0.19 -0.417,0.378 v 0 c 0,0.164 0.129,0.301 0.366,0.301 v 0 c 0.205,0 0.364,-0.078 0.451,-0.126 v 0 l 0.096,0.285 c -0.118,0.078 -0.314,0.137 -0.538,0.137 v 0 c -0.471,0 -0.761,-0.292 -0.761,-0.647 m 58.541,-1.609 h 0.403 v 2.205 h -0.403 z m -4.855,2.205 v -1.348 c 0,-0.079 -0.012,-0.15 -0.038,-0.203 v 0 c -0.074,-0.185 -0.258,-0.369 -0.526,-0.369 v 0 c -0.361,0 -0.492,0.287 -0.492,0.703 v 0 1.217 h -0.403 v -1.288 c 0,-0.772 0.415,-0.967 0.763,-0.967 v 0 c 0.39,0 0.629,0.233 0.727,0.411 v 0 h 0.011 l 0.023,-0.361 h 0.355 c -0.015,0.172 -0.017,0.374 -0.017,0.602 v 0 1.603 z m -4.691,0 -0.437,-1.294 c -0.055,-0.16 -0.103,-0.328 -0.142,-0.46 v 0 h -0.01 c -0.035,0.132 -0.089,0.305 -0.144,0.452 v 0 l -0.483,1.302 h -0.437 l 0.813,-2.035 c 0.022,-0.047 0.032,-0.079 0.032,-0.102 v 0 c 0,-0.027 -0.012,-0.055 -0.032,-0.095 v 0 c -0.094,-0.206 -0.226,-0.361 -0.335,-0.447 v 0 c -0.121,-0.104 -0.254,-0.17 -0.351,-0.195 v 0 l 0.097,-0.339 c 0.101,0.019 0.291,0.089 0.495,0.256 v 0 c 0.27,0.241 0.47,0.628 0.754,1.384 v 0 l 0.603,1.573 z m -8.472,-2.205 h 0.4 v 2.205 h -0.4 z m -0.798,2.205 -0.43,-1.234 c -0.072,-0.205 -0.137,-0.388 -0.185,-0.569 v 0 h -0.014 c -0.047,0.181 -0.104,0.364 -0.179,0.569 v 0 l -0.433,1.234 h -0.43 l 0.84,-2.205 h 0.384 l 0.865,2.205 z M 74.021,57.802 h 0.4 v 2.205 h -0.4 z m 51.033,-3.43 c -0.187,-0.178 -0.262,-0.462 -0.262,-0.772 v 0 -0.103 h -0.303 V 53.19 h 0.303 v -1.9 h 0.403 v 1.9 h 0.528 v 0.307 h -0.533 v 0.118 c 0,0.336 0.089,0.639 0.43,0.639 v 0 c 0.117,0 0.195,-0.024 0.259,-0.052 v 0 l 0.05,0.31 c -0.076,0.035 -0.196,0.064 -0.341,0.064 v 0 c -0.182,0 -0.383,-0.057 -0.534,-0.204 m -13.748,0 c -0.187,-0.178 -0.259,-0.462 -0.259,-0.772 v 0 -0.103 h -0.306 V 53.19 h 0.306 v -1.9 h 0.4 v 1.9 h 0.53 v 0.307 h -0.534 v 0.118 c 0,0.336 0.091,0.639 0.43,0.639 v 0 c 0.117,0 0.196,-0.024 0.258,-0.052 v 0 l 0.049,0.31 c -0.079,0.035 -0.196,0.064 -0.341,0.064 v 0 c -0.183,0 -0.384,-0.057 -0.533,-0.204 m 32.067,0.155 v -1.313 h -0.008 c -0.095,0.173 -0.323,0.331 -0.666,0.331 v 0 c -0.534,0 -0.994,-0.445 -0.989,-1.184 v 0 c 0,-0.67 0.415,-1.12 0.949,-1.12 v 0 c 0.361,0 0.625,0.184 0.748,0.433 v 0 h 0.011 l 0.017,-0.384 h 0.358 c -0.014,0.151 -0.014,0.373 -0.014,0.57 v 0 2.667 z m -1.258,-2.142 c 0,0.481 0.246,0.846 0.661,0.846 v 0 c 0.303,0 0.52,-0.209 0.58,-0.46 v 0 c 0.012,-0.054 0.017,-0.117 0.017,-0.172 v 0 -0.383 c 0,-0.064 -0.005,-0.119 -0.017,-0.173 v 0 c -0.072,-0.297 -0.319,-0.478 -0.589,-0.478 v 0 c -0.427,0 -0.652,0.369 -0.652,0.82 m -6.013,-1.095 h 0.402 v 3.237 h -0.402 z m -84.808,2.871 c 0,-0.139 0.101,-0.259 0.251,-0.259 v 0 h 0.005 c 0.16,0 0.26,0.12 0.26,0.259 v 0 c 0,0.141 -0.1,0.256 -0.255,0.256 v 0 c -0.156,0 -0.261,-0.115 -0.261,-0.256 M 90.08,52.807 c 0,-0.478 0.164,-0.887 0.428,-1.144 v 0 c 0.3,-0.285 0.684,-0.405 1.15,-0.405 v 0 c 0.415,0 0.769,0.101 0.948,0.167 v 0 1.478 h -1.012 v -0.318 h 0.62 v -0.916 c -0.091,-0.046 -0.269,-0.083 -0.53,-0.083 v 0 c -0.721,0 -1.183,0.462 -1.183,1.24 v 0 c 0,0.771 0.487,1.236 1.232,1.236 v 0 c 0.312,0 0.518,-0.056 0.682,-0.132 v 0 l 0.1,0.324 c -0.132,0.063 -0.415,0.139 -0.771,0.139 v 0 c -1.031,0 -1.664,-0.668 -1.664,-1.586 m -4.541,0 c 0,-0.478 0.164,-0.887 0.429,-1.144 v 0 c 0.301,-0.285 0.683,-0.405 1.147,-0.405 v 0 c 0.416,0 0.773,0.101 0.949,0.167 v 0 1.478 h -1.011 v -0.318 h 0.619 v -0.916 c -0.091,-0.046 -0.268,-0.083 -0.53,-0.083 v 0 c -0.719,0 -1.183,0.462 -1.183,1.24 v 0 c 0,0.771 0.487,1.236 1.236,1.236 v 0 c 0.309,0 0.514,-0.056 0.678,-0.132 v 0 l 0.099,0.324 c -0.131,0.063 -0.414,0.139 -0.769,0.139 v 0 c -1.032,0 -1.664,-0.668 -1.664,-1.586 m -19.465,0 c 0,-0.478 0.163,-0.887 0.427,-1.144 v 0 c 0.301,-0.285 0.685,-0.405 1.15,-0.405 v 0 c 0.413,0 0.769,0.101 0.948,0.167 v 0 1.478 h -1.012 v -0.318 h 0.619 v -0.916 c -0.09,-0.046 -0.269,-0.083 -0.529,-0.083 v 0 c -0.72,0 -1.184,0.462 -1.184,1.24 v 0 c 0,0.771 0.488,1.236 1.236,1.236 v 0 c 0.308,0 0.514,-0.056 0.678,-0.132 v 0 l 0.1,0.324 c -0.132,0.063 -0.415,0.139 -0.77,0.139 v 0 c -1.03,0 -1.663,-0.668 -1.663,-1.586 m 14.222,1.513 v -3.03 h 0.394 v 1.231 c 0.093,-0.023 0.203,-0.027 0.319,-0.027 v 0 c 0.39,0 0.731,0.115 0.941,0.337 v 0 c 0.16,0.16 0.242,0.379 0.242,0.657 v 0 c 0,0.273 -0.105,0.496 -0.273,0.642 v 0 c -0.183,0.164 -0.471,0.256 -0.862,0.256 v 0 c -0.322,0 -0.57,-0.029 -0.761,-0.066 m 0.394,-1.476 v 1.195 c 0.071,0.014 0.203,0.03 0.376,0.03 v 0 c 0.438,0 0.724,-0.195 0.724,-0.605 v 0 c 0,-0.413 -0.286,-0.651 -0.769,-0.651 v 0 c -0.128,0 -0.242,0.008 -0.331,0.031 m -3.755,1.476 v -3.03 h 0.395 v 1.231 c 0.092,-0.023 0.201,-0.027 0.32,-0.027 v 0 c 0.388,0 0.73,0.115 0.94,0.337 v 0 c 0.159,0.16 0.241,0.379 0.241,0.657 v 0 c 0,0.273 -0.104,0.496 -0.274,0.642 v 0 c -0.183,0.164 -0.469,0.256 -0.862,0.256 v 0 c -0.318,0 -0.569,-0.029 -0.76,-0.066 m 0.395,-1.476 v 1.195 c 0.069,0.014 0.201,0.03 0.375,0.03 v 0 c 0.438,0 0.725,-0.195 0.725,-0.605 v 0 c 0,-0.413 -0.287,-0.651 -0.772,-0.651 v 0 c -0.127,0 -0.241,0.008 -0.328,0.031 m -6.533,1.473 v -3.016 c 0.132,-0.021 0.342,-0.038 0.616,-0.038 v 0 c 0.502,0 0.847,0.092 1.057,0.288 v 0 c 0.159,0.15 0.265,0.351 0.265,0.615 v 0 c 0,0.456 -0.343,0.696 -0.634,0.765 v 0 0.013 c 0.319,0.115 0.52,0.375 0.52,0.676 v 0 c 0,0.241 -0.102,0.422 -0.261,0.541 v 0 c -0.186,0.156 -0.442,0.225 -0.838,0.225 v 0 c -0.273,0 -0.554,-0.029 -0.725,-0.069 m 0.398,-0.264 c 0.063,0.014 0.167,0.027 0.35,0.027 v 0 c 0.4,0 0.671,-0.147 0.671,-0.501 v 0 c 0,-0.297 -0.248,-0.52 -0.662,-0.52 v 0 h -0.359 z m 0,-2.462 v 1.171 h 0.327 c 0.433,0 0.793,-0.177 0.793,-0.592 v 0 c 0,-0.447 -0.379,-0.596 -0.788,-0.596 v 0 c -0.143,0 -0.251,0.004 -0.332,0.017 m -9.609,2.729 v -3.03 h 0.397 v 1.231 c 0.091,-0.023 0.2,-0.027 0.319,-0.027 v 0 c 0.389,0 0.731,0.115 0.939,0.337 v 0 c 0.159,0.16 0.241,0.379 0.241,0.657 v 0 c 0,0.273 -0.104,0.496 -0.273,0.642 v 0 c -0.184,0.164 -0.47,0.256 -0.862,0.256 v 0 c -0.319,0 -0.57,-0.029 -0.761,-0.066 m 0.397,-1.476 v 1.195 c 0.068,0.014 0.2,0.03 0.374,0.03 v 0 c 0.438,0 0.725,-0.195 0.725,-0.605 v 0 c 0,-0.413 -0.287,-0.651 -0.77,-0.651 v 0 c -0.129,0 -0.243,0.008 -0.329,0.031 m 45.85,1.519 V 51.29 h 0.4 v 1.391 h 1.158 v 0.327 h -1.158 v 1.02 h 1.253 v 0.335 z m -2.222,0 V 51.29 h 0.402 v 1.391 h 1.159 v 0.327 h -1.159 v 1.02 h 1.253 v 0.335 z m -1.09,-3.073 h 0.402 v 3.073 h -0.402 z m -2.612,3.073 v -0.338 h 0.932 V 51.29 h 0.403 v 2.735 h 0.94 v 0.338 z m -7.617,0 V 51.29 h 0.402 v 1.391 h 1.16 v 0.327 h -1.16 v 1.02 h 1.255 v 0.335 z M 93.203,51.29 h 0.402 v 3.073 h -0.402 z m -8.55,3.073 v -1.291 c 0,-0.473 0.01,-0.848 0.046,-1.257 v 0 l -0.013,-0.006 c -0.142,0.32 -0.324,0.64 -0.548,0.998 v 0 l -0.979,1.556 H 82.72 V 51.29 h 0.374 v 1.312 c 0,0.511 -0.005,0.88 -0.027,1.268 v 0 l 0.014,0.004 c 0.149,-0.332 0.354,-0.684 0.569,-1.025 v 0 l 0.976,-1.559 h 0.403 v 3.073 z m -9.027,0 -0.547,-1.485 c -0.137,-0.388 -0.248,-0.726 -0.33,-1.037 v 0 h -0.008 c -0.081,0.32 -0.183,0.657 -0.31,1.037 v 0 l -0.525,1.485 H 73.4 L 73.185,51.29 h 0.379 l 0.082,1.319 c 0.03,0.463 0.051,0.974 0.06,1.358 v 0 h 0.009 C 73.801,53.6 73.92,53.21 74.066,52.771 v 0 l 0.502,-1.464 h 0.301 l 0.541,1.494 c 0.158,0.422 0.279,0.809 0.389,1.166 v 0 h 0.01 c 0,-0.379 0.027,-0.899 0.049,-1.328 v 0 L 75.93,51.29 h 0.394 l -0.192,3.073 z m -11.619,0 V 51.29 h 1.734 v 0.333 h -1.333 v 1.107 h 1.19 v 0.329 h -1.19 v 0.969 h 1.264 v 0.335 z m -3.483,0 v -2.025 c 0,-0.602 -0.206,-0.76 -0.562,-0.76 v 0 c -0.135,0 -0.256,0.026 -0.338,0.059 v 0 l -0.053,-0.326 c 0.096,-0.04 0.274,-0.07 0.424,-0.07 v 0 c 0.529,0 0.931,0.25 0.931,1.065 v 0 2.057 z m 61.85,-0.461 V 53.497 H 122.03 V 53.19 h 0.344 v -1.202 c 0,-0.26 0.044,-0.457 0.153,-0.579 v 0 c 0.095,-0.105 0.249,-0.168 0.433,-0.168 v 0 c 0.157,0 0.278,0.026 0.355,0.053 v 0 l -0.017,0.307 c -0.06,-0.019 -0.124,-0.027 -0.234,-0.027 v 0 c -0.22,0 -0.3,0.154 -0.3,0.427 v 0 1.189 h 0.576 v 0.307 h -0.576 v 0.528 z m -67.349,0 V 53.497 H 54.682 V 53.19 h 0.343 v -1.202 c 0,-0.26 0.045,-0.457 0.155,-0.579 v 0 c 0.095,-0.105 0.246,-0.168 0.434,-0.168 v 0 c 0.155,0 0.277,0.026 0.353,0.053 v 0 l -0.017,0.307 c -0.059,-0.019 -0.124,-0.027 -0.232,-0.027 v 0 c -0.223,0 -0.301,0.154 -0.301,0.427 v 0 1.189 h 0.576 v 0.307 h -0.576 v 0.528 z m 84.628,-0.546 0.093,-0.27 c 0.154,0.104 0.367,0.164 0.579,0.164 v 0 c 0.452,0.005 0.502,-0.329 0.502,-0.51 v 0 -0.046 C 139.972,52.7 139.5,52.406 139.5,51.873 v 0 c 0,-0.318 0.226,-0.632 0.674,-0.632 v 0 c 0.312,0 0.556,0.154 0.676,0.327 v 0 h 0.013 l 0.036,-0.278 h 0.36 c -0.024,0.151 -0.035,0.338 -0.035,0.528 v 0 0.827 c 0,0.441 -0.161,0.9 -0.839,0.9 v 0 c -0.281,0 -0.548,-0.077 -0.732,-0.189 M 139.9,51.92 c 0,0.428 0.497,0.506 0.935,0.496 v 0 -0.382 c 0,-0.043 -0.003,-0.087 -0.017,-0.127 v 0 c -0.065,-0.189 -0.254,-0.37 -0.546,-0.37 v 0 c -0.198,0 -0.372,0.119 -0.372,0.383 m -2.891,0.455 c 0,-0.697 0.464,-1.134 1.056,-1.134 v 0 h 0.008 c 0.522,0 1.091,0.356 1.091,1.175 v 0 c 0,0.67 -0.424,1.129 -1.062,1.129 v 0 c -0.604,0 -1.093,-0.432 -1.093,-1.17 m 0.407,0.014 c 0,0.418 0.204,0.857 0.674,0.857 v 0 c 0.474,0 0.661,-0.47 0.661,-0.844 v 0 c 0,-0.5 -0.288,-0.861 -0.671,-0.861 v 0 h -0.005 c -0.386,0 -0.659,0.366 -0.659,0.848 m -3.535,0.728 h -0.01 l -0.022,0.38 h -0.361 c 0.015,-0.21 0.018,-0.438 0.018,-0.721 v 0 -2.388 h 0.402 v 1.198 h 0.008 c 0.134,-0.218 0.386,-0.345 0.679,-0.345 v 0 c 0.518,0 1.006,0.391 1.006,1.185 v 0 c 0,0.67 -0.402,1.119 -0.939,1.119 v 0 c -0.359,0 -0.622,-0.154 -0.781,-0.428 m 0.048,-1.092 c -0.015,0.049 -0.021,0.108 -0.021,0.162 v 0 0.385 c 0,0.05 0.013,0.109 0.023,0.163 v 0 c 0.077,0.3 0.338,0.493 0.609,0.493 v 0 c 0.425,0 0.654,-0.379 0.654,-0.822 v 0 c 0,-0.504 -0.247,-0.851 -0.672,-0.851 v 0 c -0.28,0 -0.529,0.191 -0.593,0.47 m -5.022,1.037 h -0.015 l -0.018,0.435 h -0.35 c 0.015,-0.206 0.017,-0.429 0.017,-0.69 v 0 l -0.002,-1.517 h 0.398 v 1.176 c 0,0.069 0.007,0.133 0.017,0.191 v 0 c 0.055,0.296 0.254,0.512 0.537,0.512 v 0 c 0.055,0 0.095,-0.006 0.141,-0.01 v 0 0.375 c -0.037,0.008 -0.069,0.011 -0.111,0.011 v 0 c -0.269,0 -0.512,-0.186 -0.614,-0.483 m -3.033,-0.687 c 0,-0.697 0.467,-1.134 1.058,-1.134 v 0 h 0.006 c 0.524,0 1.093,0.356 1.093,1.175 v 0 c 0,0.67 -0.429,1.129 -1.062,1.129 v 0 c -0.608,0 -1.095,-0.432 -1.095,-1.17 m 0.405,0.014 c 0,0.418 0.206,0.857 0.676,0.857 v 0 c 0.472,0 0.661,-0.47 0.661,-0.844 v 0 c 0,-0.5 -0.288,-0.861 -0.667,-0.861 v 0 h -0.008 c -0.387,0 -0.662,0.366 -0.662,0.848 m -6.198,0.967 0.095,-0.27 c 0.154,0.104 0.368,0.164 0.579,0.164 v 0 c 0.45,0.005 0.5,-0.329 0.5,-0.51 v 0 -0.046 c -0.853,0.006 -1.327,-0.288 -1.327,-0.821 v 0 c 0,-0.318 0.228,-0.632 0.676,-0.632 v 0 c 0.313,0 0.556,0.154 0.674,0.327 v 0 h 0.014 l 0.037,-0.278 h 0.361 c -0.025,0.151 -0.032,0.338 -0.032,0.528 v 0 0.827 c 0,0.441 -0.165,0.9 -0.844,0.9 v 0 c -0.28,0 -0.546,-0.077 -0.733,-0.189 m 0.249,-1.436 c 0,0.428 0.495,0.506 0.934,0.496 v 0 -0.382 c 0,-0.043 -0.002,-0.087 -0.019,-0.127 v 0 c -0.063,-0.189 -0.249,-0.37 -0.541,-0.37 v 0 c -0.2,0 -0.374,0.119 -0.374,0.383 m -2.091,1.471 c -0.09,-0.068 -0.179,-0.16 -0.249,-0.286 v 0 h -0.01 c -0.093,0.26 -0.323,0.44 -0.619,0.44 v 0 c -0.37,0 -0.574,-0.196 -0.695,-0.404 v 0 h -0.015 l -0.02,0.356 h -0.347 c 0.006,-0.183 0.016,-0.365 0.016,-0.599 v 0 -1.608 h 0.393 v 1.332 c 0,0.068 0.007,0.136 0.03,0.195 v 0 c 0.064,0.202 0.251,0.401 0.495,0.401 v 0 c 0.308,0 0.462,-0.251 0.462,-0.606 v 0 -1.322 h 0.392 v 1.367 c 0,0.07 0.016,0.144 0.033,0.202 v 0 c 0.075,0.192 0.247,0.359 0.477,0.359 v 0 c 0.322,0 0.481,-0.251 0.481,-0.679 v 0 -1.249 h 0.392 v 1.299 c 0,0.767 -0.435,0.956 -0.729,0.956 v 0 c -0.21,0 -0.352,-0.053 -0.487,-0.154 m -3.079,-0.329 h -0.016 l -0.017,0.435 h -0.351 c 0.015,-0.206 0.018,-0.429 0.018,-0.69 v 0 l -0.003,-1.517 h 0.4 v 1.176 c 0,0.069 0.005,0.133 0.013,0.191 v 0 c 0.054,0.296 0.256,0.512 0.54,0.512 v 0 c 0.054,0 0.096,-0.006 0.141,-0.01 v 0 0.375 c -0.037,0.008 -0.069,0.011 -0.11,0.011 v 0 c -0.27,0 -0.517,-0.186 -0.615,-0.483 m -3.034,-0.687 c 0,-0.697 0.468,-1.134 1.06,-1.134 v 0 h 0.004 c 0.525,0 1.094,0.356 1.094,1.175 v 0 c 0,0.67 -0.428,1.129 -1.064,1.129 v 0 c -0.604,0 -1.094,-0.432 -1.094,-1.17 m 0.406,0.014 c 0,0.418 0.206,0.857 0.676,0.857 v 0 c 0.475,0 0.661,-0.47 0.661,-0.844 v 0 c 0,-0.5 -0.286,-0.861 -0.669,-0.861 v 0 h -0.004 c -0.391,0 -0.664,0.366 -0.664,0.848 m -12.187,0.673 h -0.015 l -0.018,0.435 h -0.35 c 0.013,-0.206 0.017,-0.429 0.017,-0.69 v 0 L 99.975,51.29 h 0.402 v 1.176 c 0,0.069 0.005,0.133 0.013,0.191 v 0 c 0.055,0.296 0.259,0.512 0.54,0.512 v 0 c 0.052,0 0.093,-0.006 0.138,-0.01 v 0 0.375 c -0.035,0.008 -0.067,0.011 -0.109,0.011 v 0 c -0.269,0 -0.514,-0.186 -0.614,-0.483 m -3.033,-0.687 c 0,-0.697 0.465,-1.134 1.057,-1.134 v 0 h 0.006 c 0.523,0 1.093,0.356 1.093,1.175 v 0 c 0,0.67 -0.428,1.129 -1.062,1.129 v 0 c -0.607,0 -1.094,-0.432 -1.094,-1.17 m 0.405,0.014 c 0,0.418 0.206,0.857 0.675,0.857 v 0 c 0.474,0 0.663,-0.47 0.663,-0.844 v 0 c 0,-0.5 -0.288,-0.861 -0.672,-0.861 v 0 h -0.004 c -0.388,0 -0.662,0.366 -0.662,0.848 M 56.256,52.375 c 0,-0.697 0.465,-1.134 1.058,-1.134 v 0 h 0.003 c 0.525,0 1.095,0.356 1.095,1.175 v 0 c 0,0.67 -0.429,1.129 -1.061,1.129 v 0 c -0.608,0 -1.095,-0.432 -1.095,-1.17 m 0.405,0.014 c 0,0.418 0.206,0.857 0.676,0.857 v 0 c 0.473,0 0.66,-0.47 0.66,-0.844 v 0 c 0,-0.5 -0.287,-0.861 -0.67,-0.861 v 0 h -0.004 c -0.388,0 -0.662,0.366 -0.662,0.848 m -3.871,0.748 h -0.009 l -0.023,0.36 h -0.356 c 0.014,-0.183 0.019,-0.365 0.019,-0.599 v 0 -1.608 h 0.401 v 1.332 c 0,0.063 0.011,0.136 0.028,0.185 v 0 c 0.072,0.226 0.279,0.411 0.54,0.411 v 0 c 0.378,0 0.509,-0.301 0.509,-0.655 v 0 -1.273 H 54.3 v 1.319 c 0,0.756 -0.474,0.936 -0.78,0.936 v 0 c -0.364,0 -0.621,-0.203 -0.73,-0.408 m 79.649,0.36 v -1.35 c 0,-0.077 -0.014,-0.15 -0.035,-0.204 v 0 c -0.074,-0.183 -0.261,-0.369 -0.529,-0.369 v 0 c -0.357,0 -0.495,0.286 -0.495,0.705 v 0 1.218 h -0.399 v -1.291 c 0,-0.769 0.414,-0.965 0.762,-0.965 v 0 c 0.392,0 0.629,0.232 0.729,0.41 v 0 h 0.01 l 0.022,-0.361 h 0.356 c -0.014,0.174 -0.018,0.373 -0.018,0.602 v 0 1.605 z M 51.353,51.29 h 0.403 v 2.207 h -0.403 z m 37.313,0.528 c -0.05,-0.332 -0.173,-0.819 -0.273,-1.092 v 0 l 0.283,0.03 c 0.127,0.215 0.328,0.721 0.437,1.108 v 0 z m -9.969,0 c -0.048,-0.332 -0.172,-0.819 -0.271,-1.092 v 0 l 0.282,0.03 c 0.127,0.215 0.327,0.721 0.436,1.108 v 0 z m -9.497,0 c -0.049,-0.332 -0.173,-0.819 -0.274,-1.092 v 0 l 0.285,0.03 c 0.126,0.215 0.328,0.721 0.437,1.108 v 0 z m 75.056,-0.29 c 0,-0.164 0.107,-0.287 0.262,-0.287 v 0 h 0.006 c 0.164,0 0.272,0.123 0.272,0.287 v 0 c 0,0.168 -0.108,0.287 -0.267,0.287 v 0 c -0.159,0 -0.273,-0.124 -0.273,-0.287"
         id="path4403" />
    </clipPath>
    <clipPath
       clipPathUnits="userSpaceOnUse"
       id="clipPath4417">
      <path
         d="m 91.043,68.063 c 0,-1.584 0.962,-2.655 2.352,-2.655 v 0 h 0.006 c 1.329,0 2.423,0.962 2.423,2.753 v 0 c 0,1.554 -0.923,2.646 -2.36,2.646 v 0 c -1.398,0 -2.421,-1.083 -2.421,-2.744 m 0.707,0.012 c 0,1.135 0.558,2.183 1.683,2.183 v 0 c 1.125,0 1.669,-1.086 1.669,-2.125 v 0 c 0,-1.188 -0.605,-2.175 -1.678,-2.175 v 0 h -0.007 c -1.062,0 -1.667,1.018 -1.667,2.117 m 4.951,2.571 v -5.153 h 0.676 v 2.267 h 0.637 c 0.612,-0.023 0.899,-0.295 1.054,-1.017 v 0 c 0.143,-0.653 0.258,-1.102 0.342,-1.25 v 0 h 0.701 c -0.104,0.204 -0.226,0.707 -0.397,1.436 v 0 c -0.132,0.54 -0.371,0.915 -0.769,1.055 v 0 0.023 c 0.546,0.185 0.985,0.645 0.985,1.327 v 0 c 0,0.412 -0.154,0.769 -0.411,0.995 v 0 c -0.324,0.293 -0.799,0.431 -1.521,0.431 v 0 c -0.458,0 -0.954,-0.046 -1.297,-0.114 m 0.676,-0.474 c 0.117,0.031 0.341,0.061 0.669,0.061 v 0 c 0.713,0 1.203,-0.293 1.203,-0.969 v 0 c 0,-0.597 -0.46,-0.994 -1.181,-0.994 v 0 h -0.691 z m -10.154,0.482 v -5.161 h 0.676 v 2.096 c 0.156,-0.04 0.342,-0.048 0.543,-0.048 v 0 c 0.659,0 1.24,0.196 1.597,0.576 v 0 c 0.272,0.27 0.413,0.643 0.413,1.115 v 0 c 0,0.465 -0.177,0.847 -0.466,1.097 v 0 c -0.31,0.278 -0.798,0.431 -1.466,0.431 v 0 c -0.543,0 -0.97,-0.046 -1.297,-0.106 m 0.676,-2.512 v 2.03 c 0.116,0.024 0.342,0.053 0.639,0.053 v 0 c 0.742,0 1.23,-0.333 1.23,-1.029 v 0 c 0,-0.707 -0.488,-1.112 -1.311,-1.112 v 0 c -0.216,0 -0.41,0.016 -0.558,0.058 m 25.555,2.583 v -0.577 h 1.591 v -4.655 h 0.683 v 4.655 h 1.601 v 0.577 z m -1.219,0 v -2.199 c 0,-0.807 0.016,-1.441 0.081,-2.141 v 0 l -0.026,-0.006 c -0.241,0.543 -0.551,1.086 -0.931,1.696 v 0 l -1.67,2.65 h -0.745 v -5.232 h 0.636 v 2.237 c 0,0.868 -0.007,1.496 -0.046,2.157 v 0 l 0.025,0.005 c 0.255,-0.565 0.603,-1.163 0.968,-1.746 v 0 l 1.662,-2.653 h 0.683 v 5.232 z m -6.66,0 -1.777,-5.232 h 0.699 l 0.542,1.647 h 1.857 l 0.556,-1.647 h 0.724 l -1.787,5.232 z m 0.117,-1.547 c 0.1,0.319 0.187,0.645 0.254,0.948 v 0 h 0.025 c 0.077,-0.303 0.157,-0.614 0.263,-0.954 v 0 l 0.52,-1.504 h -1.576 z m -5.372,1.547 v -0.577 h 1.594 v -4.655 h 0.681 v 4.655 h 1.598 v 0.577 z m -15.325,0 -0.931,-2.533 c -0.233,-0.656 -0.42,-1.23 -0.559,-1.758 v 0 h -0.016 c -0.139,0.542 -0.311,1.115 -0.528,1.758 v 0 l -0.893,2.533 h -0.86 l -0.366,-5.232 h 0.644 l 0.142,2.244 c 0.045,0.789 0.085,1.659 0.099,2.312 v 0 h 0.016 c 0.145,-0.622 0.349,-1.289 0.596,-2.034 v 0 l 0.855,-2.49 h 0.512 l 0.923,2.538 c 0.265,0.721 0.474,1.379 0.661,1.986 v 0 h 0.015 c 0,-0.645 0.047,-1.53 0.084,-2.26 v 0 l 0.125,-2.296 h 0.668 l -0.326,5.232 z M 79.12,65.493 h 0.682 v 5.232 H 79.12 Z m -0.582,-1.551 h 38.781 v 0.389 H 78.538 Z"
         id="path4415" />
    </clipPath>
    <clipPath
       clipPathUnits="userSpaceOnUse"
       id="clipPath4429">
      <path
         d="M 0,266.4 H 195.84 V 0 H 0 Z"
         id="path4427" />
    </clipPath>
    <clipPath
       clipPathUnits="userSpaceOnUse"
       id="clipPath4449">
      <path
         d="m 109.908,40.094 h 1.956 v 1.953 h -1.956 z"
         id="path4447" />
    </clipPath>
    <clipPath
       clipPathUnits="userSpaceOnUse"
       id="clipPath4469">
      <path
         d="M 0,266.4 H 195.84 V 0 H 0 Z"
         id="path4467" />
    </clipPath>
    <inkscape:path-effect
       effect="fill_between_many"
       method="originald"
       linkedpaths="#path1662,0,1"
       id="path-effect2288"
       is_visible="true"
       lpeversion="0"
       join="true"
       close="true"
       autoreverse="true"
       applied="false" />
    <clipPath
       clipPathUnits="userSpaceOnUse"
       id="clipPath6250">
      <path
         style="display:inline;fill:#000000;fill-opacity:1;stroke-width:0.0705517"
         d="m -72.935176,6.8795006 v 0.8598871 0.8598159 h 0.515912 0.515913 v 0.1719712 0.1719689 h -0.515913 -0.515912 v 0.8598871 0.8598882 h 0.859889 0.85988 V 10.147007 9.6310966 h 0.171979 0.171971 v 0.6878814 0.687882 h -1.031824 -1.031825 v 1.232471 1.232472 24.962902 36.993414 1.232472 1.232471 h 1.031825 1.031824 v 0.68788 0.687882 h -0.171971 -0.171979 v -0.515911 -0.515911 h -0.85988 -0.859889 v 0.859888 0.859885 h 0.515912 0.515913 v 0.171969 0.171974 h -0.515913 -0.515912 v 0.859887 0.859886 h 0.859889 0.85988 V 81.50458 80.988669 h 0.171979 0.171971 v 0.515911 0.515911 h 0.85988 0.859889 v -0.859886 -0.859887 h -0.515912 -0.515913 v -0.171974 -0.171969 h 0.687883 0.687883 v 1.031822 1.031822 h 1.232469 1.232478 5.65946 31.955792 1.232472 1.232471 v -1.031822 -1.031822 h 0.687882 0.687883 v 0.171969 0.171974 h -0.515914 -0.515911 v 0.859887 0.859886 h 0.859888 0.859888 V 81.50458 80.988669 h 0.171968 0.171972 v 0.515911 0.515911 h 0.859885 0.859888 v -0.859886 -0.859887 h -0.515909 -0.515913 v -0.171974 -0.171969 h 0.515913 0.515909 V 79.09689 78.237002 h -0.859888 -0.859885 v 0.515911 0.515911 h -0.171972 -0.171968 v -0.687882 -0.68788 h 1.031822 1.031819 V 76.660591 75.428119 21.519661 13.471803 12.239331 11.00686 h -1.031819 -1.031822 V 10.318978 9.6310966 h 0.171968 0.171972 v 0.5159104 0.515912 h 0.859885 0.859888 V 9.8030308 8.9431437 h -0.515909 -0.515913 V 8.7711748 8.5992036 h 0.515913 0.515909 V 7.7393877 6.8795006 h -0.859888 -0.859885 v 0.515911 0.51591 h -0.171972 -0.171968 v -0.51591 -0.515911 h -0.859888 -0.859888 v 0.8598871 0.8598159 h 0.515911 0.515914 v 0.1719712 0.1719689 h -0.687883 -0.687882 V 7.9113216 6.8795006 h -1.232471 -1.232472 -31.955792 -5.65946 -1.232478 -1.232469 v 1.031821 1.0318221 h -0.687883 -0.687883 V 8.7711748 8.5992036 h 0.515913 0.515912 V 7.7393877 6.8795006 h -0.859889 -0.85988 v 0.515911 0.51591 h -0.171971 -0.171979 v -0.51591 -0.515911 h -0.85988 z"
         id="path6252"
         inkscape:label="Outline" />
    </clipPath>
    <clipPath
       clipPathUnits="userSpaceOnUse"
       id="clipPath30834">
      <path
         style="fill:#000000;fill-opacity:1;stroke-width:0.0768339"
         d="m -67.65182,6.349996 c -0.477714,0.00629 -0.932156,0.051506 -1.148148,0.1298806 -0.422773,0.1537477 -2.63762,1.6388429 -3.367668,2.2584983 -0.446542,0.3789895 -0.544904,0.5336072 -0.544107,0.8682564 7.94e-4,0.2998915 0.0884,0.7803607 0.244487,1.3372887 0.112199,0.400102 0.192,1.004487 0.239693,1.820714 0.02054,0.351652 0.0368,0.585299 0.03835,0.755232 l 0.01678,0.134691 0.02876,0.228498 0.110258,1.457587 c 0.03585,0.367967 0.133331,0.646609 0.225312,0.933216 l 0.12464,0.158743 0.05513,0.0457 0.03116,0.02646 c 0.02027,0.0059 0.03871,0.01253 0.04075,0.01203 0.0045,-0.0011 0.0077,-2.27e-4 0.01198,0 0.02052,0.0013 0.04053,0.01869 0.06711,0.0481 0.0708,0.07764 0.05507,0.11522 -0.155796,0.418506 -0.354163,0.508716 -0.43809,0.863791 -0.412272,1.74621 0.01148,0.395491 0.04823,2.011436 0.07909,3.590939 0.05157,2.64225 0.06195,2.885157 0.146209,3.011305 0.0504,0.07522 0.140794,0.147375 0.198949,0.163552 0.105327,0.02831 0.106179,0.0293 0.01438,0.254952 -0.189369,0.465852 -0.199156,0.594032 -0.27325,5.298665 -0.0086,0.547539 -0.02799,1.093306 -0.04554,1.214604 -0.01763,0.121314 -0.04753,0.471189 -0.06472,0.774436 -0.01712,0.304093 -0.04411,0.706289 -0.06232,0.894733 l -0.03595,0.341538 -0.0024,0.420912 c -0.01581,0.276841 -0.03665,0.558506 -0.02157,0.810532 0.05067,0.109763 0.158865,0.229783 0.213323,0.355971 0.0098,0.02183 -0.0078,0.156062 -0.07191,0.187603 -0.04346,0.02138 -0.10301,0.05724 -0.160598,0.0914 -0.142105,0.379021 -0.06072,0.365591 -0.09108,0.548386 l -0.01199,0.192416 c -0.0095,0.153664 -0.02637,0.287731 -0.03595,0.298243 -0.01562,0.08698 -0.0037,0.203793 0.02157,0.396854 l 0.0048,0.137094 -0.03835,2.275276 c -0.01989,1.251165 -0.05107,2.558513 -0.07191,2.907864 -0.04038,0.675322 -0.0112,0.882954 0.189362,1.318045 0.05749,0.124548 0.171858,0.312576 0.254074,0.416095 0.169189,0.212706 0.185381,0.317349 0.06711,0.425717 -0.212847,0.194908 -0.450454,0.776436 -0.527324,1.291571 -0.07834,0.525701 -0.08339,0.579218 -0.143816,1.642769 -0.145986,2.56944 -0.125845,3.978923 0.05753,4.358214 0.02787,0.05742 0.0085,0.294458 -0.05034,0.637373 -0.07475,0.435928 -0.09154,0.745112 -0.07909,1.539325 0.01492,0.950304 0.089,1.720506 0.179774,1.909689 0.03079,0.0647 0.0056,0.11875 -0.09348,0.199633 -0.102335,0.0833 -0.162868,0.208272 -0.232498,0.505092 -0.08258,0.351814 -0.08279,0.426101 -0.02157,0.659024 0.0504,0.191678 0.0615,0.475928 0.04314,1.063059 -0.05105,1.636919 -0.01294,4.084598 0.07191,4.658844 0.07687,0.520039 0.07285,1.527858 -0.0072,1.830335 -0.0308,0.116467 -0.02558,1.788774 0.0072,2.143048 0.01529,0.164986 0.0042,0.205232 -0.06232,0.206849 -0.103869,0.0024 -0.228218,0.109706 -0.249281,0.216466 -0.04937,0.249102 -0.101315,0.996714 -0.0815,1.16173 0.01273,0.106759 -0.01444,0.4939 -0.05753,0.858636 -0.043,0.364757 -0.08393,1.010489 -0.08868,1.435883 l -0.0074,0.77197 0.162991,0.175577 c 0.101086,0.109183 0.162991,0.227711 0.162991,0.317484 0,0.13911 -0.01105,0.145251 -0.258867,0.129882 -0.247886,-0.01455 -0.260196,-0.0094 -0.299613,0.149121 -0.05274,0.211897 -0.08172,0.977011 -0.11266,2.763552 -0.02004,1.160574 -0.01116,1.489297 0.04794,1.7125 0.137288,0.518422 0.14166,0.577247 0.05513,0.577247 -0.130929,0 -0.197537,0.214365 -0.170186,0.548383 0.03599,0.439163 0.31651,1.298345 0.560882,1.719736 0.170501,0.293576 0.257396,0.383799 0.479385,0.502679 0.313273,0.169032 0.572434,0.205952 1.519615,0.216464 1.046443,0.01132 1.513557,0.146209 2.617449,0.757647 1.766441,0.977784 2.372231,1.052354 3.722413,0.447355 0.277215,-0.12374 0.52589,-0.229245 0.553694,-0.235698 0.02706,-0.0065 0.17458,-0.05169 0.325982,-0.101029 0.150674,-0.05014 0.329136,-0.105677 0.397891,-0.122661 0.06875,-0.01617 0.272154,-0.06456 0.450623,-0.108238 0.336468,-0.08167 1.63298,-0.339495 1.96065,-0.389631 0.103133,-0.01537 0.303394,-0.04312 0.44823,-0.06255 0.144092,-0.0186 0.280804,-0.04396 0.302013,-0.05772 l 0.512943,-0.08177 c 0.05486,-0.0041 0.144085,-0.01357 0.198949,-0.02164 0.05559,-0.0089 0.195106,-0.03031 0.309201,-0.0481 l 0.206135,-0.03127 0.373922,-0.06013 c 0.03291,-0.0024 0.115812,-0.01752 0.184559,-0.03126 0.438864,-0.08816 0.655662,-0.108593 0.678335,-0.06734 l 1.035473,-0.209254 c 0.01097,-0.01212 0.201903,-0.05735 0.424253,-0.10102 0.436663,-0.08492 0.609404,-0.165547 0.858139,-0.396854 0.108987,-0.101902 0.20807,-0.145203 0.306808,-0.134692 0.416919,0.04367 1.434477,0.01286 2.718158,-0.08178 0.296228,-0.02183 0.619565,-0.03685 2.622278,-0.132289 1.340749,-0.06389 2.206405,-0.03649 3.396432,0.103429 1.200306,0.141533 2.23992,0.219323 3.446822,0.25976 0.859444,0.02912 0.937525,0.02175 1.114555,-0.08178 0.234791,-0.136684 0.322001,-0.118666 0.841341,0.158744 0.226737,0.121314 0.459023,0.22047 0.515345,0.221277 0.316952,0.09099 0.625702,0.198855 0.949184,0.27178 l 0.227711,0.03127 c 0.904468,0.02987 1.476357,0.252317 2.27229,0.24534 l 0.524639,0.09235 c 0.28892,0.0453 0.604097,0.09287 0.699905,0.108241 0.09655,0.01458 0.441931,0.06772 0.771771,0.115449 1.691122,0.248295 3.072289,0.562163 4.398386,1.005329 0.817718,0.273389 1.020749,0.313481 1.622703,0.315098 0.761425,0.0016 1.204142,-0.153562 1.862394,-0.656625 0.253079,-0.194122 0.48909,-0.383712 0.524933,-0.418512 0.101669,-0.100275 0.662879,-0.361011 0.910833,-0.425712 0.123614,-0.03235 0.482201,-0.08787 0.798158,-0.122674 0.315982,-0.03477 0.788496,-0.08874 1.047441,-0.117846 0.563205,-0.0647 0.858522,-0.197456 1.001876,-0.447363 0.09801,-0.171458 0.102751,-0.224125 0.06472,-0.817768 -0.02267,-0.349388 -0.03815,-0.997559 -0.03595,-1.438347 0.0021,-0.514379 -0.01595,-0.811916 -0.05034,-0.837007 -0.02999,-0.02185 -0.057,-0.220956 -0.05992,-0.442555 -0.0029,-0.224843 -0.05247,-0.576133 -0.110259,-0.796139 -0.09582,-0.366377 -0.121457,-0.68307 -0.182166,-2.066084 -0.02267,-0.518422 -0.116763,-1.543558 -0.272569,-2.607923 -0.176934,-0.261658 -0.03954,-0.181952 -0.0339,-0.402358 0.06437,-0.764291 0.0605,-3.337565 -0.0075,-3.644892 -0.02803,-0.126648 -0.05502,-0.268875 -0.07191,-0.36559 l -0.05136,-1.074449 -0.228741,-3.816681 c 0.04181,-0.468016 -1.028493,-0.651058 0.0047,-1.181971 0.135464,-0.426024 0.109746,-0.852016 0.104936,-1.278101 -0.138768,-2.002663 -0.06776,-4.145711 0.0078,-6.291763 l -0.07705,-0.954151 c -0.0058,-0.0218 -0.01185,-0.05256 -0.01918,-0.09381 -0.01754,-0.09625 -0.03356,-0.373116 -0.03356,-0.613328 0,-0.241012 -0.04081,-0.837547 -0.09348,-1.330055 -0.05266,-0.492538 -0.09941,-0.935218 -0.103071,-0.981319 -0.0037,-0.04529 -0.01021,-0.887806 -0.01677,-1.871205 l -0.01199,-1.78708 -0.117446,-0.103428 c -0.06437,-0.05742 -0.141131,-0.103426 -0.17258,-0.103426 -0.04169,0 -0.05866,-0.991634 -0.06232,-3.771347 -0.0059,-4.255772 0.02439,-3.947062 -0.412271,-4.480898 -0.274285,-0.334018 -0.287247,-0.363107 -0.196548,-0.464201 0.03291,-0.03558 0.06199,-0.09909 0.06711,-0.137092 0.01024,-0.07279 0.157345,-0.603578 0.321189,-1.17135 0.15799,-0.544306 0.214013,-0.815226 0.230105,-1.106392 0.0088,-0.152045 0.01865,-0.301183 0.02156,-0.331917 0,-0.0037 1.5e-4,-0.0038 0.0024,-0.0048 0.04463,-0.274346 0.05513,-0.944144 0.0791,-1.233845 -0.01979,-0.140919 -0.03116,-0.216646 -0.03116,-0.656616 0,-0.524894 -0.0068,-0.419396 0.01437,-0.579649 0.0328,-0.184817 -0.0024,-0.218168 -0.01437,-0.399262 l -0.0072,-0.192415 c -0.0029,-0.105135 -0.01447,-0.325689 -0.02397,-0.488257 -0.03421,-0.384302 -0.0021,-0.468487 -0.06711,-0.83701 -0.01609,0 -0.0615,-0.105497 -0.09588,-0.235709 -0.04901,-0.181972 -0.05055,-0.329361 -0.0096,-0.622948 0.0672,-0.484251 0.104391,-0.685025 0.158197,-0.690298 0.01617,-0.291886 -0.0546,-0.4138 -0.04794,-0.61092 l -0.05273,-0.786517 c -0.03365,-0.505483 -0.03555,-0.852016 -0.0048,-0.969311 0.09436,-0.363953 0.205123,-1.871051 0.194148,-2.626476 -0.01318,-0.890422 -0.03727,-1.001253 -0.328374,-1.563339 l -0.09108,-0.175575 0.306805,-0.346348 c 0.16896,-0.190869 0.332679,-0.399501 0.361942,-0.464199 0.09143,-0.198958 0.153435,-0.602254 0.179774,-1.137639 0.03144,-0.649441 0.07726,-1.334288 0.100671,-1.493606 0.0095,-0.06713 0.03278,-0.359888 0.05033,-0.646995 0.01828,-0.287923 0.0427,-0.542573 0.05513,-0.565225 0.01243,-0.02184 0.03311,-0.279665 0.04554,-0.572437 0.01244,-0.291964 0.04411,-0.735436 0.07191,-0.983705 0.04974,-0.449677 0.09664,-1.229229 0.122248,-2.037221 0.0088,-0.294719 0.03623,-0.457364 0.09108,-0.524331 0.04315,-0.05338 0.218607,-0.384279 0.388303,-0.733583 0.45276,-0.931138 0.713179,-1.402864 1.09062,-1.9674111 0.230405,-0.3449397 0.367816,-0.6110584 0.431448,-0.8442431 0.08851,-0.3218114 0.08858,-0.349881 0.0096,-0.5339535 -0.168958,-0.3912042 -0.880997,-0.5591831 -2.10692,-0.4978794 -0.384008,0.019248 -1.193556,0.050421 -1.797735,0.069751 -1.018908,0.032594 -1.228532,0.019457 -2.497563,-0.1250702 -0.588809,-0.067047 -0.865426,-0.079591 -1.524447,-0.081777 -0.801688,-0.00267 -1.211506,0.052396 -1.845599,0.2501402 -0.234063,0.072789 -0.518281,0.1493377 -0.627996,0.1707729 -0.109712,0.021431 -0.23509,0.060706 -0.280437,0.086587 -0.04534,0.025882 -0.30462,0.086426 -0.575263,0.1322895 -0.270634,0.045938 -0.615608,0.1043588 -0.767016,0.1346909 -0.480552,0.096485 -1.940401,0.3132222 -2.447245,0.3607795 -0.178472,0.016743 -0.570394,0.052823 -0.872485,0.081777 -0.958924,0.092036 -1.280612,0.1091227 -2.205175,0.1178508 -0.70218,0.00663 -1.043527,0.036647 -1.546,0.1370922 -0.795782,0.1590048 -1.036167,0.1642306 -1.320729,0.021648 -0.187243,-0.094222 -0.321664,-0.1112853 -0.88928,-0.1106389 -0.430871,4.762e-4 -0.585457,-0.00159 -0.668748,-0.040888 l -0.390702,0.06494 0.0072,0.00481 -0.441034,0.110639 c -0.29989,0.076105 -0.503931,0.1015725 -0.639985,0.074561 -0.109715,-0.021757 -0.374396,-0.025008 -0.587245,-0.00722 -0.223692,0.018759 -0.447485,0.047714 -0.505754,0.024053 -0.32725,-0.017584 -0.629264,-0.022169 -0.939599,-0.031268 0.01508,0.00851 -0.101568,0.00529 -0.167785,0.024051 -0.181399,0.050952 -0.300586,0.063597 -0.328375,0.033673 -0.01169,-0.012213 -0.212503,-0.036556 -0.445828,-0.055319 -0.478367,-0.038417 -1.116394,-0.1089766 -2.070949,-0.2260883 -0.357667,-0.043835 -0.987304,-0.1188051 -1.399805,-0.1659549 -0.411797,-0.04707 -0.941133,-0.1108467 -1.174459,-0.1419103 -0.482023,-0.063973 -0.543263,-0.07225 -1.572387,-0.199635 -0.776758,-0.096162 -2.061972,-0.1237848 -2.380132,-0.050509 -0.163835,0.037608 -0.214404,0.019177 -0.476993,-0.1851964 -0.286726,-0.2235407 -0.704536,-0.3819372 -1.040229,-0.3920506 -0.0704,-0.00214 -0.104843,-0.00388 -0.09827,-0.019243 l -0.134228,0.028862 -0.280437,-0.098609 -2.588684,-0.4449574 -1.495685,-0.2236796 -0.651965,-0.098609 -0.04794,-0.028862 -0.321189,-0.098609 c -0.844793,-0.259615 -1.56809,-0.4208515 -2.87156,-0.6397821 -0.252625,-0.04243 -0.577058,-0.064018 -0.906001,-0.067346 -0.06854,-6.879e-4 -0.137895,-8.995e-4 -0.206137,0 z"
         id="path30836" />
    </clipPath>
    <clipPath
       clipPathUnits="userSpaceOnUse"
       id="clipPath32328">
      <path
         id="path32330"
         d="m -26.255152,79.347884 c -7.4e-5,-1.914824 1.552165,-3.467137 3.466989,-3.467137 v 3.466989 z m -42.559901,0 c 7.4e-5,-1.914824 -1.552166,-3.467137 -3.466989,-3.467137 v 3.466989 z M -26.255152,9.5524029 c -7.4e-5,1.9148221 1.552165,3.4671361 3.466989,3.4671361 V 9.5525505 Z m -42.559901,0 c 7.4e-5,1.9148221 -1.552166,3.4671361 -3.466989,3.4671361 V 9.5525505 Z m 0.958955,0 h 40.641842 c 0,2.4427521 1.983193,4.4259431 4.425945,4.4259431 v 60.9433 c -2.442752,0 -4.425945,2.442752 -4.425945,4.425945 h -40.641842 c 0,-2.442753 -2.442752,-4.425945 -4.425944,-4.425945 v -60.9433 c 2.442752,0 4.425944,-2.442752 4.425944,-4.4259431 z"
         sodipodi:nodetypes="ccccccccccccccccccccccccc"
         style="stroke-width:0.0737658" />
    </clipPath>
  </defs>
  <path
     id="path83234"
     style="display:inline;fill:#000000;fill-opacity:1;stroke-width:0.0705517"
     d="M 25.470703 5.8203125 C 24.112933 5.8203125 23.027553 6.2760555 22.212891 7.1855469 C 21.402538 8.0907275 20.998044 9.3061554 20.998047 10.832031 C 20.998047 12.357907 21.402538 13.573335 22.212891 14.478516 C 23.027553 15.383697 24.112933 15.835938 25.470703 15.835938 C 26.824163 15.835938 27.906444 15.383697 28.716797 14.478516 C 29.52715 13.569025 29.931641 12.353596 29.931641 10.832031 C 29.931641 9.3061555 29.52715 8.0907275 28.716797 7.1855469 C 27.906444 6.2760555 26.824163 5.8203125 25.470703 5.8203125 z M 11.357422 5.9941406 L 11.357422 15.648438 L 14.041016 15.648438 C 15.903103 15.648438 17.273026 15.258695 18.152344 14.478516 C 19.031663 13.698336 19.470703 12.476308 19.470703 10.8125 C 19.470703 9.1573127 19.033211 7.9418851 18.158203 7.1660156 C 17.283195 6.3858364 15.911723 5.9941406 14.041016 5.9941406 L 11.357422 5.9941406 z M 31.976562 5.9941406 L 31.976562 15.648438 L 33.28125 15.648438 L 33.28125 11.568359 L 34.705078 11.568359 C 35.222323 11.568359 35.628363 11.673556 35.925781 11.884766 C 36.227506 12.095974 36.538454 12.525317 36.857422 13.171875 L 38.091797 15.648438 L 39.496094 15.648438 L 38.169922 13.009766 C 37.90268 12.466658 37.636383 12.040817 37.369141 11.730469 C 37.106206 11.420121 36.832906 11.217876 36.552734 11.123047 C 37.091531 10.967873 37.501075 10.689929 37.78125 10.289062 C 38.065735 9.8881969 38.208984 9.3831551 38.208984 8.7753906 C 38.208984 7.8443477 37.937641 7.1487113 37.394531 6.6875 C 36.851424 6.2262892 36.027289 5.9941406 34.923828 5.9941406 L 31.976562 5.9941406 z M 25.470703 6.8808594 C 26.418988 6.8808594 27.168972 7.2345036 27.720703 7.9414062 C 28.27674 8.6483096 28.554687 9.6121926 28.554688 10.832031 C 28.554688 12.047559 28.27674 13.007941 27.720703 13.714844 C 27.168972 14.421747 26.418988 14.775391 25.470703 14.775391 C 24.52242 14.775391 23.769334 14.421747 23.208984 13.714844 C 22.652944 13.007941 22.375 12.047559 22.375 10.832031 C 22.375 9.6121927 22.652944 8.6483097 23.208984 7.9414062 C 23.769334 7.2345036 24.52242 6.8808594 25.470703 6.8808594 z M 12.664062 7.0683594 L 14.240234 7.0683594 C 15.572143 7.0683594 16.547679 7.3711554 17.164062 7.9746094 C 17.784758 8.5737528 18.09375 9.5193847 18.09375 10.8125 C 18.09375 12.114236 17.784758 13.066468 17.164062 13.669922 C 16.547678 14.273375 15.572143 14.574219 14.240234 14.574219 L 12.664062 14.574219 L 12.664062 7.0683594 z M 33.28125 7.0683594 L 34.923828 7.0683594 C 35.553145 7.0683594 36.026735 7.213157 36.345703 7.5019531 C 36.668982 7.7864384 36.832031 8.2107306 36.832031 8.7753906 C 36.832031 9.3400511 36.668982 9.7693941 36.345703 10.0625 C 36.026735 10.351296 35.553145 10.494141 34.923828 10.494141 L 33.28125 10.494141 L 33.28125 7.0683594 z M 25.425781 17.755859 C 25.211699 17.755859 25.039062 18.10361 25.039062 18.533203 C 25.039062 18.962796 25.028104 19.341797 25.242188 19.341797 C 25.256978 19.341797 25.282157 19.343503 25.310547 19.345703 C 25.262507 19.363643 25.219865 19.395037 25.183594 19.435547 C 25.106414 19.299114 24.96278 19.207031 24.798828 19.207031 C 24.553096 19.207031 24.353513 19.412056 24.353516 19.666016 C 24.353516 19.919979 24.553096 20.126953 24.798828 20.126953 C 24.850588 20.126953 24.899214 20.114566 24.945312 20.097656 L 24.105469 20.830078 C 24.130309 20.718485 24.162218 20.607666 23.996094 20.496094 C 23.68028 21.002036 23.267535 21.346139 22.863281 21.705078 C 22.624563 21.877324 22.46977 22.080421 22.474609 22.34375 C 22.523199 22.673371 22.501154 22.848412 22.427734 22.904297 L 21.919922 23.382812 C 21.935432 23.317643 21.938337 23.24163 21.929688 23.152344 C 21.953498 23.03062 22.007426 22.908836 21.826172 22.787109 C 21.510358 23.293051 21.099569 23.637152 20.695312 23.996094 C 20.456598 24.168337 20.299848 24.371436 20.304688 24.634766 C 20.353268 24.964413 20.333176 25.139428 20.259766 25.195312 L 19.714844 25.707031 C 19.718844 25.660771 19.720644 25.610375 19.714844 25.554688 C 19.738654 25.432963 19.792576 25.31118 19.611328 25.189453 C 19.295513 25.695394 18.882773 26.04145 18.478516 26.400391 C 18.2398 26.572638 18.085006 26.775734 18.089844 27.039062 C 18.138434 27.36871 18.116389 27.541768 18.042969 27.597656 L 17.414062 28.191406 C 17.29653 28.309222 17.146964 28.491296 17.298828 28.728516 C 17.389568 28.829156 17.475285 28.776826 17.5625 28.697266 C 17.757129 28.882434 17.916962 29.05988 18.0625 29.236328 C 18.09098 29.196198 18.126273 29.158888 18.166016 29.125 L 24.800781 22.576172 L 24.808594 31.705078 L 19.044922 31.683594 C 18.990492 31.683663 18.940039 31.674116 18.894531 31.660156 C 18.895631 31.873768 18.89073 32.096212 18.875 32.337891 L 18.021484 31.433594 C 18.021484 31.433594 17.799374 31.215709 17.451172 31.492188 L 15.800781 31.445312 L 15.806641 31.439453 C 15.808741 31.31915 15.737519 31.280665 15.679688 31.25 C 15.634408 31.23243 15.592193 31.202544 15.457031 31.214844 C 15.457031 31.214844 14.162561 32.760162 13.708984 33.552734 C 13.678714 33.605634 13.683276 33.681814 13.697266 33.740234 C 13.626756 33.751214 13.566575 33.786374 13.529297 33.84375 C 13.479657 33.92015 13.48404 34.016915 13.53125 34.105469 L 13.498047 34.150391 L 13.599609 34.207031 C 13.452428 34.158151 13.305481 34.187419 13.236328 34.292969 C 13.164468 34.402676 13.202506 34.557319 13.316406 34.673828 L 13.265625 34.638672 L 12.369141 36.013672 C 12.20961 36.194348 12.050156 36.393047 11.890625 36.365234 L 12.107422 36.429688 C 12.577904 36.455487 12.838661 35.955008 13.15625 35.599609 L 13.617188 34.896484 L 13.5 34.810547 L 13.630859 34.894531 C 13.282366 35.401441 12.942396 36.085041 12.400391 36.398438 L 12.107422 36.552734 C 12.248263 36.664097 12.395984 36.664283 12.566406 36.638672 L 12.517578 36.671875 C 12.768529 36.641235 13.024927 36.879742 13.683594 36.242188 C 13.41088 37.153861 13.749524 37.265633 13.841797 37.503906 L 13.847656 37.445312 C 13.905286 37.607461 13.975673 37.735135 14.140625 37.806641 L 14.138672 37.478516 C 14.160362 36.861669 14.594326 36.249462 14.878906 35.708984 L 14.886719 35.712891 L 14.490234 36.4375 C 14.32543 36.884276 14.005607 37.348246 14.25 37.75 L 14.40625 37.908203 C 14.30834 37.780642 14.409741 37.548832 14.494141 37.324219 L 15.283203 35.898438 C 15.380333 35.903238 15.464758 35.867421 15.517578 35.800781 L 15.521484 35.558594 L 15.521484 35.509766 C 15.487164 35.446036 15.4384 35.384286 15.367188 35.337891 L 15.216797 35.238281 C 15.333086 35.277651 15.448718 35.259353 15.521484 35.189453 L 15.521484 33.927734 L 15.521484 33.583984 L 16.613281 33.583984 C 16.665811 33.498424 16.775391 33.318359 16.775391 33.318359 L 17.238281 32.611328 L 17.251953 32.625 L 17.160156 32.783203 L 17.935547 33.583984 L 33.074219 33.583984 L 33.771484 32.863281 L 34.054688 33.367188 C 34.054688 33.367188 34.14465 33.503474 34.197266 33.583984 L 35.457031 33.583984 L 35.457031 35.316406 C 35.515921 35.359036 35.584727 35.378734 35.646484 35.365234 L 35.542969 35.431641 C 35.508859 35.453861 35.482111 35.481566 35.457031 35.509766 L 35.457031 35.917969 C 35.510691 35.960329 35.576077 35.986382 35.652344 35.982422 L 36.439453 37.404297 C 36.523833 37.628909 36.623284 37.860722 36.525391 37.988281 L 36.681641 37.830078 C 36.926034 37.428321 36.606211 36.964353 36.441406 36.517578 L 36.044922 35.792969 L 36.052734 35.789062 C 36.337315 36.329524 36.771278 36.941736 36.792969 37.558594 L 36.791016 37.886719 C 36.95546 37.815439 37.02645 37.688783 37.083984 37.527344 L 37.089844 37.583984 C 37.182094 37.345767 37.522362 37.233356 37.25 36.322266 C 37.908389 36.959377 38.163158 36.721314 38.414062 36.751953 L 38.365234 36.71875 C 38.535676 36.74436 38.68336 36.742229 38.824219 36.630859 L 38.53125 36.478516 C 37.989246 36.165117 37.651206 35.481519 37.302734 34.974609 L 37.429688 34.892578 L 37.314453 34.976562 L 37.777344 35.679688 C 38.094934 36.035086 38.353737 36.535557 38.824219 36.509766 L 39.041016 36.445312 C 38.881589 36.472813 38.72193 36.274309 38.5625 36.09375 L 37.666016 34.716797 L 37.636719 34.740234 C 37.738065 34.629929 37.768059 34.481114 37.697266 34.373047 C 37.630066 34.270466 37.492531 34.235557 37.357422 34.273438 L 37.367188 34.267578 L 37.433594 34.230469 L 37.419922 34.212891 C 37.469462 34.135871 37.465914 34.021697 37.402344 33.923828 C 37.360404 33.859288 37.3019 33.815518 37.240234 33.796875 C 37.249634 33.742515 37.248926 33.678686 37.222656 33.632812 C 36.76908 32.840241 35.474609 31.294922 35.474609 31.294922 C 35.339447 31.282622 35.297233 31.312518 35.251953 31.330078 C 35.194113 31.360738 35.122913 31.399226 35.125 31.519531 L 35.130859 31.525391 L 33.480469 31.572266 C 33.132294 31.29584 32.912109 31.513672 32.912109 31.513672 L 31.748047 32.744141 C 31.758127 32.348599 31.80899 31.96674 31.894531 31.601562 C 31.832671 31.645533 31.742866 31.673958 31.640625 31.673828 L 26.1875 31.648438 L 26.150391 22.441406 L 32.761719 29.527344 C 32.808119 29.566904 32.847273 29.610232 32.876953 29.658203 C 33.069789 29.438456 33.281699 29.23274 33.525391 29.050781 C 33.603231 29.114961 33.680579 29.150597 33.761719 29.060547 C 33.913582 28.82333 33.765959 28.641254 33.648438 28.523438 L 33.017578 27.929688 C 32.944158 27.873797 32.924076 27.700738 32.972656 27.371094 C 32.977456 27.107765 32.822699 26.904666 32.583984 26.732422 C 32.179727 26.37348 31.766986 26.027422 31.451172 25.521484 C 31.269922 25.64321 31.323836 25.764995 31.347656 25.886719 C 31.342256 25.942789 31.341903 25.994521 31.345703 26.041016 L 30.802734 25.527344 C 30.729314 25.471454 30.707269 25.296442 30.755859 24.966797 C 30.760659 24.703468 30.605903 24.500368 30.367188 24.328125 C 29.962933 23.969186 29.550189 23.62508 29.234375 23.119141 C 29.053124 23.240868 29.107036 23.362649 29.130859 23.484375 C 29.122159 23.573915 29.126898 23.649553 29.142578 23.714844 L 28.632812 23.234375 C 28.559393 23.178495 28.539301 23.005426 28.587891 22.675781 C 28.592691 22.412455 28.437936 22.209356 28.199219 22.037109 C 27.794985 21.67817 27.382199 21.334064 27.066406 20.828125 C 26.885153 20.949849 26.93907 21.071635 26.962891 21.193359 C 26.961791 21.204919 26.963685 21.213449 26.962891 21.224609 L 25.685547 19.974609 C 25.764317 20.041929 25.866653 20.083984 25.978516 20.083984 C 26.227301 20.083984 26.429691 19.882871 26.429688 19.634766 C 26.429688 19.386663 26.227301 19.185547 25.978516 19.185547 C 25.885476 19.185547 25.798342 19.213519 25.726562 19.261719 C 25.805132 19.099153 25.814453 18.778178 25.814453 18.533203 C 25.814453 18.103609 25.639864 17.755859 25.425781 17.755859 z M 25.636719 19.34375 C 25.621819 19.36119 25.607823 19.378847 25.595703 19.398438 C 25.574563 19.380817 25.551544 19.366839 25.527344 19.355469 C 25.567654 19.354369 25.606002 19.35163 25.636719 19.34375 z M 26.763672 23.792969 L 26.751953 31.144531 L 31.640625 31.126953 C 31.815271 31.127205 31.956379 31.209806 31.974609 31.314453 C 32.112197 30.852765 32.315818 30.423999 32.583984 30.037109 C 32.531974 30.021049 32.478516 29.996341 32.427734 29.957031 L 26.763672 23.792969 z M 24.232422 23.804688 L 18.5 29.556641 C 18.45294 29.593081 18.403853 29.614289 18.355469 29.630859 C 18.66649 30.114067 18.8203 30.603418 18.873047 31.171875 C 18.923907 31.152905 18.978953 31.138762 19.042969 31.138672 L 24.289062 31.15625 L 24.232422 23.804688 z M 30.105469 24.923828 C 30.193609 24.952938 30.259434 24.996365 30.263672 25.070312 C 30.263408 25.079013 30.264243 25.087023 30.263672 25.095703 L 30.105469 24.923828 z M 22.181641 27.277344 C 22.943347 27.311174 23.552737 27.943175 23.552734 28.722656 C 23.552737 29.523806 22.910483 30.171875 22.119141 30.171875 C 22.116341 30.171875 22.114128 30.171875 22.111328 30.171875 C 22.272613 30.169975 22.400391 30.027513 22.400391 29.837891 L 22.400391 29.029297 L 23.191406 29.029297 C 23.385301 29.029297 23.548828 28.900468 23.548828 28.740234 C 23.548828 28.579997 23.385301 28.451172 23.191406 28.451172 L 22.400391 28.451172 L 22.400391 27.607422 C 22.400391 27.443111 22.310637 27.311182 22.181641 27.277344 z M 22.046875 27.279297 C 21.915465 27.314347 21.8125 27.44433 21.8125 27.607422 L 21.8125 28.451172 L 21.033203 28.451172 C 20.839306 28.451172 20.697266 28.579997 20.697266 28.740234 C 20.697266 28.900468 20.839306 29.029297 21.033203 29.029297 L 21.8125 29.029297 L 21.8125 29.837891 C 21.8125 30.004904 21.914557 30.136044 22.048828 30.166016 C 21.291098 30.127896 20.6875 29.499263 20.6875 28.722656 L 20.6875 28.720703 C 20.688294 27.945043 21.29022 27.31795 22.046875 27.279297 z M 28.839844 27.294922 C 28.71085 27.328762 28.621094 27.460691 28.621094 27.625 L 28.621094 28.46875 L 27.830078 28.46875 C 27.636183 28.46875 27.472656 28.595622 27.472656 28.755859 C 27.472656 28.916093 27.636183 29.046875 27.830078 29.046875 L 28.621094 29.046875 L 28.621094 29.855469 C 28.621094 30.04509 28.750824 30.18564 28.912109 30.1875 C 28.909109 30.187518 28.905344 30.189453 28.902344 30.189453 C 28.116943 30.189453 27.482184 29.548708 27.472656 28.755859 C 27.472584 28.749861 27.470703 28.744297 27.470703 28.738281 C 27.470703 27.958626 28.077919 27.328485 28.839844 27.294922 z M 28.974609 27.294922 C 29.731055 27.333842 30.335169 27.9628 30.335938 28.738281 C 30.335938 29.514714 29.732127 30.14326 28.974609 30.181641 C 29.108782 30.151671 29.208984 30.022485 29.208984 29.855469 L 29.208984 29.046875 L 29.988281 29.046875 C 30.182175 29.046875 30.326172 28.916094 30.326172 28.755859 C 30.326172 28.595622 30.182175 28.46875 29.988281 28.46875 L 29.208984 28.46875 L 29.208984 27.625 C 29.208984 27.461942 29.105879 27.329998 28.974609 27.294922 z M 32.287109 27.314453 C 32.393559 27.342593 32.475666 27.388824 32.480469 27.472656 C 32.47994 27.489246 32.479216 27.506788 32.478516 27.523438 L 32.287109 27.314453 z M 33.681641 32.703125 L 33.742188 32.8125 L 33.679688 32.705078 L 33.681641 32.703125 z M 20.097656 34.273438 L 24.492188 38.785156 L 25.490234 37.789062 L 26.375 38.675781 L 30.568359 34.273438 L 20.097656 34.273438 z M 14.015625 35.146484 L 14.601562 35.527344 L 14.486328 35.464844 C 14.484528 35.467244 14.484222 35.470356 14.482422 35.472656 L 14.259766 35.349609 L 13.865234 35.949219 L 14.226562 35.291016 L 14.013672 35.152344 C 14.014625 35.150244 14.014725 35.148584 14.015625 35.146484 z M 36.916016 35.226562 C 36.91681 35.228662 36.916969 35.230422 36.917969 35.232422 L 36.705078 35.371094 L 37.066406 36.029297 L 36.671875 35.429688 L 36.449219 35.552734 C 36.447319 35.550334 36.447113 35.547222 36.445312 35.544922 L 36.328125 35.609375 L 36.916016 35.226562 z M 34.767578 37.039062 L 29.814453 42.125 L 30.925781 43.240234 L 29.865234 44.298828 L 34.041016 48.587891 C 34.491879 47.605149 34.767578 46.57184 34.767578 45.507812 L 34.767578 37.039062 z M 16.210938 37.240234 L 16.210938 45.507812 C 16.210938 46.528199 16.455369 47.518419 16.861328 48.462891 L 21.013672 44.201172 L 20.167969 43.353516 L 20.039062 43.224609 L 21.054688 42.212891 L 16.210938 37.240234 z M 25.490234 38.304688 L 20.554688 43.224609 L 25.476562 48.160156 L 30.410156 43.240234 L 25.490234 38.304688 z M 25.488281 38.705078 L 30.025391 43.255859 L 25.474609 47.794922 L 20.935547 43.242188 L 25.488281 38.705078 z M 24.441406 47.638672 L 19.707031 52.498047 C 20.045248 52.841905 20.392078 53.172492 20.742188 53.482422 C 21.899859 54.507233 23.07388 55.334379 23.982422 55.902344 C 24.436693 56.186324 24.825064 56.405077 25.107422 56.550781 C 25.248603 56.623631 25.364318 56.679421 25.443359 56.712891 C 25.456719 56.718591 25.461546 56.718306 25.472656 56.722656 C 25.476956 56.720556 25.477922 56.72075 25.482422 56.71875 C 25.554922 56.68376 25.663895 56.62846 25.798828 56.554688 C 26.068689 56.407145 26.446594 56.185554 26.896484 55.900391 C 27.796265 55.330063 28.979732 54.501005 30.152344 53.474609 C 30.48356 53.184695 30.812715 52.878124 31.134766 52.558594 L 26.427734 47.726562 L 25.474609 48.675781 L 24.441406 47.638672 z M 26.880859 59.304688 C 25.824817 59.304688 24.994079 59.551587 24.390625 60.042969 C 23.791481 60.534353 23.492188 61.207091 23.492188 62.060547 C 23.492188 62.797623 23.711133 63.371361 24.146484 63.785156 C 24.581832 64.198954 25.285617 64.503298 26.259766 64.697266 L 27.054688 64.853516 C 27.718487 64.987138 28.19558 65.185883 28.484375 65.453125 C 28.777481 65.720368 28.923828 66.092264 28.923828 66.566406 C 28.923828 67.109516 28.721583 67.527208 28.316406 67.820312 C 27.911231 68.113421 27.335541 68.259766 26.589844 68.259766 C 26.09846 68.259766 25.598471 68.186023 25.089844 68.035156 C 24.58122 67.884293 24.061427 67.658746 23.53125 67.361328 L 23.53125 68.707031 C 24.08298 68.909617 24.615969 69.062567 25.128906 69.166016 C 25.64615 69.269466 26.132946 69.320313 26.589844 69.320312 C 27.801064 69.320312 28.718746 69.078467 29.34375 68.595703 C 29.973067 68.112942 30.287109 67.404102 30.287109 66.46875 C 30.287109 65.68426 30.055365 65.059271 29.589844 64.59375 C 29.128632 64.123919 28.411646 63.796674 27.4375 63.611328 L 26.648438 63.449219 C 25.932913 63.315596 25.446123 63.1413 25.1875 62.925781 C 24.933188 62.705952 24.804688 62.383759 24.804688 61.957031 C 24.804688 61.448407 24.997235 61.055162 25.380859 60.779297 C 25.768794 60.503432 26.318084 60.365234 27.029297 60.365234 C 27.438785 60.365234 27.863073 60.424638 28.302734 60.541016 C 28.742392 60.657395 29.211336 60.83324 29.707031 61.070312 L 29.707031 59.796875 C 29.215647 59.633079 28.733503 59.50963 28.263672 59.427734 C 27.793841 59.345834 27.33345 59.304687 26.880859 59.304688 z M 10.814453 59.480469 L 10.814453 69.132812 L 12.119141 69.132812 L 12.119141 65.052734 L 13.542969 65.052734 C 14.060215 65.052734 14.466255 65.159885 14.763672 65.371094 C 15.065398 65.582303 15.376344 66.009693 15.695312 66.65625 L 16.929688 69.132812 L 18.333984 69.132812 L 17.007812 66.496094 C 16.740569 65.952984 16.472322 65.525192 16.205078 65.214844 C 15.942145 64.904498 15.6708 64.702249 15.390625 64.607422 C 15.929423 64.452247 16.338966 64.174303 16.619141 63.773438 C 16.903627 63.372572 17.046875 62.867529 17.046875 62.259766 C 17.046875 61.328721 16.775531 60.633086 16.232422 60.171875 C 15.689314 59.710664 14.865177 59.480469 13.761719 59.480469 L 10.814453 59.480469 z M 20.013672 59.480469 L 20.013672 69.132812 L 21.320312 69.132812 L 21.320312 59.480469 L 20.013672 59.480469 z M 32.324219 59.480469 L 32.324219 69.132812 L 33.630859 69.132812 L 33.630859 64.484375 L 38.265625 69.132812 L 39.986328 69.132812 L 34.853516 63.980469 L 39.644531 59.480469 L 37.962891 59.480469 L 33.630859 63.560547 L 33.630859 59.480469 L 32.324219 59.480469 z M 12.119141 60.552734 L 13.761719 60.552734 C 14.391035 60.552734 14.866578 60.697533 15.185547 60.986328 C 15.508826 61.270814 15.669922 61.695106 15.669922 62.259766 C 15.669922 62.824424 15.508826 63.253769 15.185547 63.546875 C 14.866578 63.83567 14.391035 63.980469 13.761719 63.980469 L 12.119141 63.980469 L 12.119141 60.552734 z "
     inkscape:label="middle" />
</svg>
