  0
SECTION
  2
BLOCKS
  0
ENDSEC
  0
SECTION
  2
ENTITIES
  0
LINE
  8
0
 10
33
 20
83
 11
31.3273
 21
83
  0
LINE
  8
0
 10
31.3273
 20
83
 11
29.5104
 21
86.1471
  0
LINE
  8
0
 10
29.5104
 20
86.1471
 11
31.1575
 21
89
  0
LINE
  8
0
 10
31.1575
 20
89
 11
33
 21
89
  0
LINE
  8
0
 10
33
 20
89
 11
33
 21
90
  0
LINE
  8
0
 10
33
 20
90
 11
25
 21
90
  0
LINE
  8
0
 10
25
 20
90
 11
25
 21
89
  0
LINE
  8
0
 10
25
 20
89
 11
26.7085
 21
89
  0
LINE
  8
0
 10
26.7085
 20
89
 11
28.3557
 21
86.1471
  0
LINE
  8
0
 10
28.3557
 20
86.1471
 11
26.5387
 21
83
  0
LINE
  8
0
 10
26.5387
 20
83
 11
25
 21
83
  0
LINE
  8
0
 10
25
 20
83
 11
25
 21
82
  0
LINE
  8
0
 10
25
 20
82
 11
33
 21
82
  0
LINE
  8
0
 10
33
 20
82
 11
33
 21
83
  0
LINE
  8
0
 10
27.8632
 20
89
 11
30.0028
 21
89
  0
LINE
  8
0
 10
30.0028
 20
89
 11
28.933
 21
87.1471
  0
LINE
  8
0
 10
28.933
 20
87.1471
 11
27.8632
 21
89
  0
LINE
  8
0
 10
27.6934
 20
83
 11
28.933
 21
85.1471
  0
LINE
  8
0
 10
28.933
 20
85.1471
 11
30.1726
 21
83
  0
LINE
  8
0
 10
30.1726
 20
83
 11
27.6934
 21
83
  0
LINE
  8
0
 10
21
 20
83
 11
19.3273
 21
83
  0
LINE
  8
0
 10
19.3273
 20
83
 11
17.5104
 21
86.1471
  0
LINE
  8
0
 10
17.5104
 20
86.1471
 11
19.1575
 21
89
  0
LINE
  8
0
 10
19.1575
 20
89
 11
21
 21
89
  0
LINE
  8
0
 10
21
 20
89
 11
21
 21
90
  0
LINE
  8
0
 10
21
 20
90
 11
13
 21
90
  0
LINE
  8
0
 10
13
 20
90
 11
13
 21
89
  0
LINE
  8
0
 10
13
 20
89
 11
14.7085
 21
89
  0
LINE
  8
0
 10
14.7085
 20
89
 11
16.3557
 21
86.1471
  0
LINE
  8
0
 10
16.3557
 20
86.1471
 11
14.5387
 21
83
  0
LINE
  8
0
 10
14.5387
 20
83
 11
13
 21
83
  0
LINE
  8
0
 10
13
 20
83
 11
13
 21
82
  0
LINE
  8
0
 10
13
 20
82
 11
21
 21
82
  0
LINE
  8
0
 10
21
 20
82
 11
21
 21
83
  0
LINE
  8
0
 10
15.8632
 20
89
 11
18.0028
 21
89
  0
LINE
  8
0
 10
18.0028
 20
89
 11
16.933
 21
87.1471
  0
LINE
  8
0
 10
16.933
 20
87.1471
 11
15.8632
 21
89
  0
LINE
  8
0
 10
15.6934
 20
83
 11
16.933
 21
85.1471
  0
LINE
  8
0
 10
16.933
 20
85.1471
 11
18.1726
 21
83
  0
LINE
  8
0
 10
18.1726
 20
83
 11
15.6934
 21
83
  0
LINE
  8
0
 10
45
 20
83
 11
43.3273
 21
83
  0
LINE
  8
0
 10
43.3273
 20
83
 11
41.5104
 21
86.1471
  0
LINE
  8
0
 10
41.5104
 20
86.1471
 11
43.1575
 21
89
  0
LINE
  8
0
 10
43.1575
 20
89
 11
45
 21
89
  0
LINE
  8
0
 10
45
 20
89
 11
45
 21
90
  0
LINE
  8
0
 10
45
 20
90
 11
37
 21
90
  0
LINE
  8
0
 10
37
 20
90
 11
37
 21
89
  0
LINE
  8
0
 10
37
 20
89
 11
38.7085
 21
89
  0
LINE
  8
0
 10
38.7085
 20
89
 11
40.3557
 21
86.1471
  0
LINE
  8
0
 10
40.3557
 20
86.1471
 11
38.5387
 21
83
  0
LINE
  8
0
 10
38.5387
 20
83
 11
37
 21
83
  0
LINE
  8
0
 10
37
 20
83
 11
37
 21
82
  0
LINE
  8
0
 10
37
 20
82
 11
45
 21
82
  0
LINE
  8
0
 10
45
 20
82
 11
45
 21
83
  0
LINE
  8
0
 10
39.8633
 20
89
 11
42.0028
 21
89
  0
LINE
  8
0
 10
42.0028
 20
89
 11
40.933
 21
87.1471
  0
LINE
  8
0
 10
40.933
 20
87.1471
 11
39.8633
 21
89
  0
LINE
  8
0
 10
39.6934
 20
83
 11
40.933
 21
85.1471
  0
LINE
  8
0
 10
40.933
 20
85.1471
 11
42.1726
 21
83
  0
LINE
  8
0
 10
42.1726
 20
83
 11
39.6934
 21
83
  0
LINE
  8
0
 10
9
 20
83
 11
7.32735
 21
83
  0
LINE
  8
0
 10
7.32735
 20
83
 11
5.51036
 21
86.1471
  0
LINE
  8
0
 10
5.51036
 20
86.1471
 11
7.15747
 21
89
  0
LINE
  8
0
 10
7.15747
 20
89
 11
9
 21
89
  0
LINE
  8
0
 10
9
 20
89
 11
9
 21
90
  0
LINE
  8
0
 10
9
 20
90
 11
1
 21
90
  0
LINE
  8
0
 10
1
 20
90
 11
1
 21
89
  0
LINE
  8
0
 10
1
 20
89
 11
2.70854
 21
89
  0
LINE
  8
0
 10
2.70854
 20
89
 11
4.35565
 21
86.1471
  0
LINE
  8
0
 10
4.35565
 20
86.1471
 11
2.53867
 21
83
  0
LINE
  8
0
 10
2.53867
 20
83
 11
1
 21
83
  0
LINE
  8
0
 10
1
 20
83
 11
1
 21
82
  0
LINE
  8
0
 10
1
 20
82
 11
9
 21
82
  0
LINE
  8
0
 10
9
 20
82
 11
9
 21
83
  0
LINE
  8
0
 10
3.86324
 20
89
 11
6.00276
 21
89
  0
LINE
  8
0
 10
6.00276
 20
89
 11
4.933
 21
87.1471
  0
LINE
  8
0
 10
4.933
 20
87.1471
 11
3.86324
 21
89
  0
LINE
  8
0
 10
3.69337
 20
83
 11
4.933
 21
85.1471
  0
LINE
  8
0
 10
4.933
 20
85.1471
 11
6.17264
 21
83
  0
LINE
  8
0
 10
6.17264
 20
83
 11
3.69337
 21
83
  0
LINE
  8
0
 10
21.4
 20
73
 11
17.7462
 21
73
  0
LINE
  8
0
 10
17.7462
 20
73
 11
19.93
 21
79
  0
LINE
  8
0
 10
19.93
 20
79
 11
21.4
 21
79
  0
LINE
  8
0
 10
21.4
 20
79
 11
21.4
 21
80
  0
LINE
  8
0
 10
21.4
 20
80
 11
19.2843
 21
80
  0
LINE
  8
0
 10
19.2843
 20
80
 11
19.2362
 21
80.0175
  0
LINE
  8
0
 10
19.2362
 20
80.0175
 11
19.2298
 21
80
  0
LINE
  8
0
 10
19.2298
 20
80
 11
12.6
 21
80
  0
LINE
  8
0
 10
12.6
 20
80
 11
12.6
 21
79
  0
LINE
  8
0
 10
12.6
 20
79
 11
13.9522
 21
79
  0
LINE
  8
0
 10
13.9522
 20
79
 11
16.136
 21
73
  0
LINE
  8
0
 10
16.136
 20
73
 11
12.6
 21
73
  0
LINE
  8
0
 10
12.6
 20
73
 11
12.6
 21
72
  0
LINE
  8
0
 10
12.6
 20
72
 11
21.4
 21
72
  0
LINE
  8
0
 10
21.4
 20
72
 11
21.4
 21
73
  0
LINE
  8
0
 10
15.0164
 20
79
 11
18.8658
 21
79
  0
LINE
  8
0
 10
18.8658
 20
79
 11
16.9411
 21
73.7119
  0
LINE
  8
0
 10
16.9411
 20
73.7119
 11
15.0164
 21
79
  0
LINE
  8
0
 10
33.4
 20
73
 11
29.7462
 21
73
  0
LINE
  8
0
 10
29.7462
 20
73
 11
31.93
 21
79
  0
LINE
  8
0
 10
31.93
 20
79
 11
33.4
 21
79
  0
LINE
  8
0
 10
33.4
 20
79
 11
33.4
 21
80
  0
LINE
  8
0
 10
33.4
 20
80
 11
31.2843
 21
80
  0
LINE
  8
0
 10
31.2843
 20
80
 11
31.2362
 21
80.0175
  0
LINE
  8
0
 10
31.2362
 20
80.0175
 11
31.2298
 21
80
  0
LINE
  8
0
 10
31.2298
 20
80
 11
24.6
 21
80
  0
LINE
  8
0
 10
24.6
 20
80
 11
24.6
 21
79
  0
LINE
  8
0
 10
24.6
 20
79
 11
25.9522
 21
79
  0
LINE
  8
0
 10
25.9522
 20
79
 11
28.136
 21
73
  0
LINE
  8
0
 10
28.136
 20
73
 11
24.6
 21
73
  0
LINE
  8
0
 10
24.6
 20
73
 11
24.6
 21
72
  0
LINE
  8
0
 10
24.6
 20
72
 11
33.4
 21
72
  0
LINE
  8
0
 10
33.4
 20
72
 11
33.4
 21
73
  0
LINE
  8
0
 10
27.0164
 20
79
 11
30.8658
 21
79
  0
LINE
  8
0
 10
30.8658
 20
79
 11
28.9411
 21
73.7119
  0
LINE
  8
0
 10
28.9411
 20
73.7119
 11
27.0164
 21
79
  0
LINE
  8
0
 10
45.4
 20
73
 11
41.7462
 21
73
  0
LINE
  8
0
 10
41.7462
 20
73
 11
43.93
 21
79
  0
LINE
  8
0
 10
43.93
 20
79
 11
45.4
 21
79
  0
LINE
  8
0
 10
45.4
 20
79
 11
45.4
 21
80
  0
LINE
  8
0
 10
45.4
 20
80
 11
43.2843
 21
80
  0
LINE
  8
0
 10
43.2843
 20
80
 11
43.2362
 21
80.0175
  0
LINE
  8
0
 10
43.2362
 20
80.0175
 11
43.2298
 21
80
  0
LINE
  8
0
 10
43.2298
 20
80
 11
36.6
 21
80
  0
LINE
  8
0
 10
36.6
 20
80
 11
36.6
 21
79
  0
LINE
  8
0
 10
36.6
 20
79
 11
37.9522
 21
79
  0
LINE
  8
0
 10
37.9522
 20
79
 11
40.136
 21
73
  0
LINE
  8
0
 10
40.136
 20
73
 11
36.6
 21
73
  0
LINE
  8
0
 10
36.6
 20
73
 11
36.6
 21
72
  0
LINE
  8
0
 10
36.6
 20
72
 11
45.4
 21
72
  0
LINE
  8
0
 10
45.4
 20
72
 11
45.4
 21
73
  0
LINE
  8
0
 10
39.0164
 20
79
 11
42.8658
 21
79
  0
LINE
  8
0
 10
42.8658
 20
79
 11
40.9411
 21
73.7119
  0
LINE
  8
0
 10
40.9411
 20
73.7119
 11
39.0164
 21
79
  0
LINE
  8
0
 10
9.39999
 20
73
 11
5.74615
 21
73
  0
LINE
  8
0
 10
5.74615
 20
73
 11
7.92998
 21
79
  0
LINE
  8
0
 10
7.92998
 20
79
 11
9.39999
 21
79
  0
LINE
  8
0
 10
9.39999
 20
79
 11
9.39999
 21
80
  0
LINE
  8
0
 10
9.39999
 20
80
 11
7.28435
 21
80
  0
LINE
  8
0
 10
7.28435
 20
80
 11
7.23616
 21
80.0175
  0
LINE
  8
0
 10
7.23616
 20
80.0175
 11
7.22977
 21
80
  0
LINE
  8
0
 10
7.22977
 20
80
 11
0.599991
 21
80
  0
LINE
  8
0
 10
0.599991
 20
80
 11
0.599991
 21
79
  0
LINE
  8
0
 10
0.599991
 20
79
 11
1.95219
 21
79
  0
LINE
  8
0
 10
1.95219
 20
79
 11
4.13602
 21
73
  0
LINE
  8
0
 10
4.13602
 20
73
 11
0.599991
 21
73
  0
LINE
  8
0
 10
0.599991
 20
73
 11
0.599991
 21
72
  0
LINE
  8
0
 10
0.599991
 20
72
 11
9.39999
 21
72
  0
LINE
  8
0
 10
9.39999
 20
72
 11
9.39999
 21
73
  0
LINE
  8
0
 10
3.01637
 20
79
 11
6.8658
 21
79
  0
LINE
  8
0
 10
6.8658
 20
79
 11
4.94109
 21
73.7119
  0
LINE
  8
0
 10
4.94109
 20
73.7119
 11
3.01637
 21
79
  0
LINE
  8
0
 10
21.4
 20
63
 11
17.7462
 21
63
  0
LINE
  8
0
 10
17.7462
 20
63
 11
19.93
 21
69
  0
LINE
  8
0
 10
19.93
 20
69
 11
21.4
 21
69
  0
LINE
  8
0
 10
21.4
 20
69
 11
21.4
 21
70
  0
LINE
  8
0
 10
21.4
 20
70
 11
19.2843
 21
70
  0
LINE
  8
0
 10
19.2843
 20
70
 11
19.2362
 21
70.0175
  0
LINE
  8
0
 10
19.2362
 20
70.0175
 11
19.2298
 21
70
  0
LINE
  8
0
 10
19.2298
 20
70
 11
12.6
 21
70
  0
LINE
  8
0
 10
12.6
 20
70
 11
12.6
 21
69
  0
LINE
  8
0
 10
12.6
 20
69
 11
13.9522
 21
69
  0
LINE
  8
0
 10
13.9522
 20
69
 11
16.136
 21
63
  0
LINE
  8
0
 10
16.136
 20
63
 11
12.6
 21
63
  0
LINE
  8
0
 10
12.6
 20
63
 11
12.6
 21
62
  0
LINE
  8
0
 10
12.6
 20
62
 11
21.4
 21
62
  0
LINE
  8
0
 10
21.4
 20
62
 11
21.4
 21
63
  0
LINE
  8
0
 10
15.0164
 20
69
 11
18.8658
 21
69
  0
LINE
  8
0
 10
18.8658
 20
69
 11
16.9411
 21
63.7119
  0
LINE
  8
0
 10
16.9411
 20
63.7119
 11
15.0164
 21
69
  0
LINE
  8
0
 10
33.4
 20
63
 11
29.7462
 21
63
  0
LINE
  8
0
 10
29.7462
 20
63
 11
31.93
 21
69
  0
LINE
  8
0
 10
31.93
 20
69
 11
33.4
 21
69
  0
LINE
  8
0
 10
33.4
 20
69
 11
33.4
 21
70
  0
LINE
  8
0
 10
33.4
 20
70
 11
31.2843
 21
70
  0
LINE
  8
0
 10
31.2843
 20
70
 11
31.2362
 21
70.0175
  0
LINE
  8
0
 10
31.2362
 20
70.0175
 11
31.2298
 21
70
  0
LINE
  8
0
 10
31.2298
 20
70
 11
24.6
 21
70
  0
LINE
  8
0
 10
24.6
 20
70
 11
24.6
 21
69
  0
LINE
  8
0
 10
24.6
 20
69
 11
25.9522
 21
69
  0
LINE
  8
0
 10
25.9522
 20
69
 11
28.136
 21
63
  0
LINE
  8
0
 10
28.136
 20
63
 11
24.6
 21
63
  0
LINE
  8
0
 10
24.6
 20
63
 11
24.6
 21
62
  0
LINE
  8
0
 10
24.6
 20
62
 11
33.4
 21
62
  0
LINE
  8
0
 10
33.4
 20
62
 11
33.4
 21
63
  0
LINE
  8
0
 10
27.0164
 20
69
 11
30.8658
 21
69
  0
LINE
  8
0
 10
30.8658
 20
69
 11
28.9411
 21
63.7119
  0
LINE
  8
0
 10
28.9411
 20
63.7119
 11
27.0164
 21
69
  0
LINE
  8
0
 10
9.39999
 20
63
 11
5.74615
 21
63
  0
LINE
  8
0
 10
5.74615
 20
63
 11
7.92998
 21
69
  0
LINE
  8
0
 10
7.92998
 20
69
 11
9.39999
 21
69
  0
LINE
  8
0
 10
9.39999
 20
69
 11
9.39999
 21
70
  0
LINE
  8
0
 10
9.39999
 20
70
 11
7.28435
 21
70
  0
LINE
  8
0
 10
7.28435
 20
70
 11
7.23616
 21
70.0175
  0
LINE
  8
0
 10
7.23616
 20
70.0175
 11
7.22977
 21
70
  0
LINE
  8
0
 10
7.22977
 20
70
 11
0.599991
 21
70
  0
LINE
  8
0
 10
0.599991
 20
70
 11
0.599991
 21
69
  0
LINE
  8
0
 10
0.599991
 20
69
 11
1.95219
 21
69
  0
LINE
  8
0
 10
1.95219
 20
69
 11
4.13602
 21
63
  0
LINE
  8
0
 10
4.13602
 20
63
 11
0.599991
 21
63
  0
LINE
  8
0
 10
0.599991
 20
63
 11
0.599991
 21
62
  0
LINE
  8
0
 10
0.599991
 20
62
 11
9.39999
 21
62
  0
LINE
  8
0
 10
9.39999
 20
62
 11
9.39999
 21
63
  0
LINE
  8
0
 10
3.01637
 20
69
 11
6.8658
 21
69
  0
LINE
  8
0
 10
6.8658
 20
69
 11
4.94109
 21
63.7119
  0
LINE
  8
0
 10
4.94109
 20
63.7119
 11
3.01637
 21
69
  0
LINE
  8
0
 10
45.4
 20
63
 11
41.7462
 21
63
  0
LINE
  8
0
 10
41.7462
 20
63
 11
43.93
 21
69
  0
LINE
  8
0
 10
43.93
 20
69
 11
45.4
 21
69
  0
LINE
  8
0
 10
45.4
 20
69
 11
45.4
 21
70
  0
LINE
  8
0
 10
45.4
 20
70
 11
43.2843
 21
70
  0
LINE
  8
0
 10
43.2843
 20
70
 11
43.2362
 21
70.0175
  0
LINE
  8
0
 10
43.2362
 20
70.0175
 11
43.2298
 21
70
  0
LINE
  8
0
 10
43.2298
 20
70
 11
36.6
 21
70
  0
LINE
  8
0
 10
36.6
 20
70
 11
36.6
 21
69
  0
LINE
  8
0
 10
36.6
 20
69
 11
37.9522
 21
69
  0
LINE
  8
0
 10
37.9522
 20
69
 11
40.136
 21
63
  0
LINE
  8
0
 10
40.136
 20
63
 11
36.6
 21
63
  0
LINE
  8
0
 10
36.6
 20
63
 11
36.6
 21
62
  0
LINE
  8
0
 10
36.6
 20
62
 11
45.4
 21
62
  0
LINE
  8
0
 10
45.4
 20
62
 11
45.4
 21
63
  0
LINE
  8
0
 10
39.0164
 20
69
 11
42.8658
 21
69
  0
LINE
  8
0
 10
42.8658
 20
69
 11
40.9411
 21
63.7119
  0
LINE
  8
0
 10
40.9411
 20
63.7119
 11
39.0164
 21
69
  0
LINE
  8
0
 10
45.6667
 20
53
 11
44.1667
 21
53
  0
LINE
  8
0
 10
44.1667
 20
53
 11
44.1667
 21
59
  0
LINE
  8
0
 10
44.1667
 20
59
 11
45.6667
 21
59
  0
LINE
  8
0
 10
45.6667
 20
59
 11
45.6667
 21
60
  0
LINE
  8
0
 10
45.6667
 20
60
 11
36.3333
 21
60
  0
LINE
  8
0
 10
36.3333
 20
60
 11
36.3333
 21
59
  0
LINE
  8
0
 10
36.3333
 20
59
 11
37.8333
 21
59
  0
LINE
  8
0
 10
37.8333
 20
59
 11
37.8333
 21
53
  0
LINE
  8
0
 10
37.8333
 20
53
 11
36.3333
 21
53
  0
LINE
  8
0
 10
36.3333
 20
53
 11
36.3333
 21
52
  0
LINE
  8
0
 10
36.3333
 20
52
 11
45.6667
 21
52
  0
LINE
  8
0
 10
45.6667
 20
52
 11
45.6667
 21
53
  0
LINE
  8
0
 10
38.8333
 20
53
 11
38.8333
 21
59
  0
LINE
  8
0
 10
38.8333
 20
59
 11
40.5
 21
59
  0
LINE
  8
0
 10
40.5
 20
59
 11
40.5
 21
53
  0
LINE
  8
0
 10
40.5
 20
53
 11
38.8333
 21
53
  0
LINE
  8
0
 10
41.5
 20
53
 11
41.5
 21
59
  0
LINE
  8
0
 10
41.5
 20
59
 11
43.1667
 21
59
  0
LINE
  8
0
 10
43.1667
 20
59
 11
43.1667
 21
53
  0
LINE
  8
0
 10
43.1667
 20
53
 11
41.5
 21
53
  0
LINE
  8
0
 10
9.66666
 20
53
 11
8.16666
 21
53
  0
LINE
  8
0
 10
8.16666
 20
53
 11
8.16666
 21
59
  0
LINE
  8
0
 10
8.16666
 20
59
 11
9.66666
 21
59
  0
LINE
  8
0
 10
9.66666
 20
59
 11
9.66666
 21
60
  0
LINE
  8
0
 10
9.66666
 20
60
 11
0.333328
 21
60
  0
LINE
  8
0
 10
0.333328
 20
60
 11
0.333328
 21
59
  0
LINE
  8
0
 10
0.333328
 20
59
 11
1.83333
 21
59
  0
LINE
  8
0
 10
1.83333
 20
59
 11
1.83333
 21
53
  0
LINE
  8
0
 10
1.83333
 20
53
 11
0.333328
 21
53
  0
LINE
  8
0
 10
0.333328
 20
53
 11
0.333328
 21
52
  0
LINE
  8
0
 10
0.333328
 20
52
 11
9.66666
 21
52
  0
LINE
  8
0
 10
9.66666
 20
52
 11
9.66666
 21
53
  0
LINE
  8
0
 10
5.5
 20
53
 11
5.5
 21
59
  0
LINE
  8
0
 10
5.5
 20
59
 11
7.16666
 21
59
  0
LINE
  8
0
 10
7.16666
 20
59
 11
7.16666
 21
53
  0
LINE
  8
0
 10
7.16666
 20
53
 11
5.5
 21
53
  0
LINE
  8
0
 10
2.83333
 20
53
 11
2.83333
 21
59
  0
LINE
  8
0
 10
2.83333
 20
59
 11
4.5
 21
59
  0
LINE
  8
0
 10
4.5
 20
59
 11
4.5
 21
53
  0
LINE
  8
0
 10
4.5
 20
53
 11
2.83333
 21
53
  0
LINE
  8
0
 10
9.66666
 20
43
 11
8.16666
 21
43
  0
LINE
  8
0
 10
8.16666
 20
43
 11
8.16666
 21
49
  0
LINE
  8
0
 10
8.16666
 20
49
 11
9.66666
 21
49
  0
LINE
  8
0
 10
9.66666
 20
49
 11
9.66666
 21
50
  0
LINE
  8
0
 10
9.66666
 20
50
 11
0.333328
 21
50
  0
LINE
  8
0
 10
0.333328
 20
50
 11
0.333328
 21
49
  0
LINE
  8
0
 10
0.333328
 20
49
 11
1.83333
 21
49
  0
LINE
  8
0
 10
1.83333
 20
49
 11
1.83333
 21
43
  0
LINE
  8
0
 10
1.83333
 20
43
 11
0.333328
 21
43
  0
LINE
  8
0
 10
0.333328
 20
43
 11
0.333328
 21
42
  0
LINE
  8
0
 10
0.333328
 20
42
 11
9.66666
 21
42
  0
LINE
  8
0
 10
9.66666
 20
42
 11
9.66666
 21
43
  0
LINE
  8
0
 10
5.5
 20
43
 11
5.5
 21
49
  0
LINE
  8
0
 10
5.5
 20
49
 11
7.16666
 21
49
  0
LINE
  8
0
 10
7.16666
 20
49
 11
7.16666
 21
43
  0
LINE
  8
0
 10
7.16666
 20
43
 11
5.5
 21
43
  0
LINE
  8
0
 10
2.83333
 20
43
 11
2.83333
 21
49
  0
LINE
  8
0
 10
2.83333
 20
49
 11
4.5
 21
49
  0
LINE
  8
0
 10
4.5
 20
49
 11
4.5
 21
43
  0
LINE
  8
0
 10
4.5
 20
43
 11
2.83333
 21
43
  0
LINE
  8
0
 10
21.6667
 20
43
 11
20.1667
 21
43
  0
LINE
  8
0
 10
20.1667
 20
43
 11
20.1667
 21
49
  0
LINE
  8
0
 10
20.1667
 20
49
 11
21.6667
 21
49
  0
LINE
  8
0
 10
21.6667
 20
49
 11
21.6667
 21
50
  0
LINE
  8
0
 10
21.6667
 20
50
 11
12.3333
 21
50
  0
LINE
  8
0
 10
12.3333
 20
50
 11
12.3333
 21
49
  0
LINE
  8
0
 10
12.3333
 20
49
 11
13.8333
 21
49
  0
LINE
  8
0
 10
13.8333
 20
49
 11
13.8333
 21
43
  0
LINE
  8
0
 10
13.8333
 20
43
 11
12.3333
 21
43
  0
LINE
  8
0
 10
12.3333
 20
43
 11
12.3333
 21
42
  0
LINE
  8
0
 10
12.3333
 20
42
 11
21.6667
 21
42
  0
LINE
  8
0
 10
21.6667
 20
42
 11
21.6667
 21
43
  0
LINE
  8
0
 10
14.8333
 20
43
 11
14.8333
 21
49
  0
LINE
  8
0
 10
14.8333
 20
49
 11
16.5
 21
49
  0
LINE
  8
0
 10
16.5
 20
49
 11
16.5
 21
43
  0
LINE
  8
0
 10
16.5
 20
43
 11
14.8333
 21
43
  0
LINE
  8
0
 10
17.5
 20
43
 11
17.5
 21
49
  0
LINE
  8
0
 10
17.5
 20
49
 11
19.1667
 21
49
  0
LINE
  8
0
 10
19.1667
 20
49
 11
19.1667
 21
43
  0
LINE
  8
0
 10
19.1667
 20
43
 11
17.5
 21
43
  0
LINE
  8
0
 10
33.6667
 20
43
 11
32.1667
 21
43
  0
LINE
  8
0
 10
32.1667
 20
43
 11
32.1667
 21
49
  0
LINE
  8
0
 10
32.1667
 20
49
 11
33.6667
 21
49
  0
LINE
  8
0
 10
33.6667
 20
49
 11
33.6667
 21
50
  0
LINE
  8
0
 10
33.6667
 20
50
 11
24.3333
 21
50
  0
LINE
  8
0
 10
24.3333
 20
50
 11
24.3333
 21
49
  0
LINE
  8
0
 10
24.3333
 20
49
 11
25.8333
 21
49
  0
LINE
  8
0
 10
25.8333
 20
49
 11
25.8333
 21
43
  0
LINE
  8
0
 10
25.8333
 20
43
 11
24.3333
 21
43
  0
LINE
  8
0
 10
24.3333
 20
43
 11
24.3333
 21
42
  0
LINE
  8
0
 10
24.3333
 20
42
 11
33.6667
 21
42
  0
LINE
  8
0
 10
33.6667
 20
42
 11
33.6667
 21
43
  0
LINE
  8
0
 10
29.5
 20
43
 11
29.5
 21
49
  0
LINE
  8
0
 10
29.5
 20
49
 11
31.1667
 21
49
  0
LINE
  8
0
 10
31.1667
 20
49
 11
31.1667
 21
43
  0
LINE
  8
0
 10
31.1667
 20
43
 11
29.5
 21
43
  0
LINE
  8
0
 10
26.8333
 20
43
 11
26.8333
 21
49
  0
LINE
  8
0
 10
26.8333
 20
49
 11
28.5
 21
49
  0
LINE
  8
0
 10
28.5
 20
49
 11
28.5
 21
43
  0
LINE
  8
0
 10
28.5
 20
43
 11
26.8333
 21
43
  0
LINE
  8
0
 10
45.6667
 20
43
 11
44.1667
 21
43
  0
LINE
  8
0
 10
44.1667
 20
43
 11
44.1667
 21
49
  0
LINE
  8
0
 10
44.1667
 20
49
 11
45.6667
 21
49
  0
LINE
  8
0
 10
45.6667
 20
49
 11
45.6667
 21
50
  0
LINE
  8
0
 10
45.6667
 20
50
 11
36.3333
 21
50
  0
LINE
  8
0
 10
36.3333
 20
50
 11
36.3333
 21
49
  0
LINE
  8
0
 10
36.3333
 20
49
 11
37.8333
 21
49
  0
LINE
  8
0
 10
37.8333
 20
49
 11
37.8333
 21
43
  0
LINE
  8
0
 10
37.8333
 20
43
 11
36.3333
 21
43
  0
LINE
  8
0
 10
36.3333
 20
43
 11
36.3333
 21
42
  0
LINE
  8
0
 10
36.3333
 20
42
 11
45.6667
 21
42
  0
LINE
  8
0
 10
45.6667
 20
42
 11
45.6667
 21
43
  0
LINE
  8
0
 10
38.8333
 20
43
 11
38.8333
 21
49
  0
LINE
  8
0
 10
38.8333
 20
49
 11
40.5
 21
49
  0
LINE
  8
0
 10
40.5
 20
49
 11
40.5
 21
43
  0
LINE
  8
0
 10
40.5
 20
43
 11
38.8333
 21
43
  0
LINE
  8
0
 10
41.5
 20
43
 11
41.5
 21
49
  0
LINE
  8
0
 10
41.5
 20
49
 11
43.1667
 21
49
  0
LINE
  8
0
 10
43.1667
 20
49
 11
43.1667
 21
43
  0
LINE
  8
0
 10
43.1667
 20
43
 11
41.5
 21
43
  0
LINE
  8
0
 10
32
 20
33
 11
29.5
 21
33
  0
LINE
  8
0
 10
29.5
 20
33
 11
29.5
 21
39
  0
LINE
  8
0
 10
29.5
 20
39
 11
32
 21
39
  0
LINE
  8
0
 10
32
 20
39
 11
32
 21
40
  0
LINE
  8
0
 10
32
 20
40
 11
26
 21
40
  0
LINE
  8
0
 10
26
 20
40
 11
26
 21
39
  0
LINE
  8
0
 10
26
 20
39
 11
28.5
 21
39
  0
LINE
  8
0
 10
28.5
 20
39
 11
28.5
 21
33
  0
LINE
  8
0
 10
28.5
 20
33
 11
26
 21
33
  0
LINE
  8
0
 10
26
 20
33
 11
26
 21
32
  0
LINE
  8
0
 10
26
 20
32
 11
32
 21
32
  0
LINE
  8
0
 10
32
 20
32
 11
32
 21
33
  0
LINE
  8
0
 10
24
 20
33
 11
21.5
 21
33
  0
LINE
  8
0
 10
21.5
 20
33
 11
21.5
 21
39
  0
LINE
  8
0
 10
21.5
 20
39
 11
24
 21
39
  0
LINE
  8
0
 10
24
 20
39
 11
24
 21
40
  0
LINE
  8
0
 10
24
 20
40
 11
18
 21
40
  0
LINE
  8
0
 10
18
 20
40
 11
18
 21
39
  0
LINE
  8
0
 10
18
 20
39
 11
20.5
 21
39
  0
LINE
  8
0
 10
20.5
 20
39
 11
20.5
 21
33
  0
LINE
  8
0
 10
20.5
 20
33
 11
18
 21
33
  0
LINE
  8
0
 10
18
 20
33
 11
18
 21
32
  0
LINE
  8
0
 10
18
 20
32
 11
24
 21
32
  0
LINE
  8
0
 10
24
 20
32
 11
24
 21
33
  0
LINE
  8
0
 10
8
 20
33
 11
5.5
 21
33
  0
LINE
  8
0
 10
5.5
 20
33
 11
5.5
 21
39
  0
LINE
  8
0
 10
5.5
 20
39
 11
8
 21
39
  0
LINE
  8
0
 10
8
 20
39
 11
8
 21
40
  0
LINE
  8
0
 10
8
 20
40
 11
2
 21
40
  0
LINE
  8
0
 10
2
 20
40
 11
2
 21
39
  0
LINE
  8
0
 10
2
 20
39
 11
4.5
 21
39
  0
LINE
  8
0
 10
4.5
 20
39
 11
4.5
 21
33
  0
LINE
  8
0
 10
4.5
 20
33
 11
2
 21
33
  0
LINE
  8
0
 10
2
 20
33
 11
2
 21
32
  0
LINE
  8
0
 10
2
 20
32
 11
8
 21
32
  0
LINE
  8
0
 10
8
 20
32
 11
8
 21
33
  0
LINE
  8
0
 10
16
 20
33
 11
13.5
 21
33
  0
LINE
  8
0
 10
13.5
 20
33
 11
13.5
 21
39
  0
LINE
  8
0
 10
13.5
 20
39
 11
16
 21
39
  0
LINE
  8
0
 10
16
 20
39
 11
16
 21
40
  0
LINE
  8
0
 10
16
 20
40
 11
10
 21
40
  0
LINE
  8
0
 10
10
 20
40
 11
10
 21
39
  0
LINE
  8
0
 10
10
 20
39
 11
12.5
 21
39
  0
LINE
  8
0
 10
12.5
 20
39
 11
12.5
 21
33
  0
LINE
  8
0
 10
12.5
 20
33
 11
10
 21
33
  0
LINE
  8
0
 10
10
 20
33
 11
10
 21
32
  0
LINE
  8
0
 10
10
 20
32
 11
16
 21
32
  0
LINE
  8
0
 10
16
 20
32
 11
16
 21
33
  0
LINE
  8
0
 10
40
 20
33
 11
37.5
 21
33
  0
LINE
  8
0
 10
37.5
 20
33
 11
37.5
 21
39
  0
LINE
  8
0
 10
37.5
 20
39
 11
40
 21
39
  0
LINE
  8
0
 10
40
 20
39
 11
40
 21
40
  0
LINE
  8
0
 10
40
 20
40
 11
34
 21
40
  0
LINE
  8
0
 10
34
 20
40
 11
34
 21
39
  0
LINE
  8
0
 10
34
 20
39
 11
36.5
 21
39
  0
LINE
  8
0
 10
36.5
 20
39
 11
36.5
 21
33
  0
LINE
  8
0
 10
36.5
 20
33
 11
34
 21
33
  0
LINE
  8
0
 10
34
 20
33
 11
34
 21
32
  0
LINE
  8
0
 10
34
 20
32
 11
40
 21
32
  0
LINE
  8
0
 10
40
 20
32
 11
40
 21
33
  0
LINE
  8
0
 10
8
 20
23
 11
5.5
 21
23
  0
LINE
  8
0
 10
5.5
 20
23
 11
5.5
 21
29
  0
LINE
  8
0
 10
5.5
 20
29
 11
8
 21
29
  0
LINE
  8
0
 10
8
 20
29
 11
8
 21
30
  0
LINE
  8
0
 10
8
 20
30
 11
2
 21
30
  0
LINE
  8
0
 10
2
 20
30
 11
2
 21
29
  0
LINE
  8
0
 10
2
 20
29
 11
4.5
 21
29
  0
LINE
  8
0
 10
4.5
 20
29
 11
4.5
 21
23
  0
LINE
  8
0
 10
4.5
 20
23
 11
2
 21
23
  0
LINE
  8
0
 10
2
 20
23
 11
2
 21
22
  0
LINE
  8
0
 10
2
 20
22
 11
8
 21
22
  0
LINE
  8
0
 10
8
 20
22
 11
8
 21
23
  0
LINE
  8
0
 10
24
 20
23
 11
21.5
 21
23
  0
LINE
  8
0
 10
21.5
 20
23
 11
21.5
 21
29
  0
LINE
  8
0
 10
21.5
 20
29
 11
24
 21
29
  0
LINE
  8
0
 10
24
 20
29
 11
24
 21
30
  0
LINE
  8
0
 10
24
 20
30
 11
18
 21
30
  0
LINE
  8
0
 10
18
 20
30
 11
18
 21
29
  0
LINE
  8
0
 10
18
 20
29
 11
20.5
 21
29
  0
LINE
  8
0
 10
20.5
 20
29
 11
20.5
 21
23
  0
LINE
  8
0
 10
20.5
 20
23
 11
18
 21
23
  0
LINE
  8
0
 10
18
 20
23
 11
18
 21
22
  0
LINE
  8
0
 10
18
 20
22
 11
24
 21
22
  0
LINE
  8
0
 10
24
 20
22
 11
24
 21
23
  0
LINE
  8
0
 10
32
 20
23
 11
29.5
 21
23
  0
LINE
  8
0
 10
29.5
 20
23
 11
29.5
 21
29
  0
LINE
  8
0
 10
29.5
 20
29
 11
32
 21
29
  0
LINE
  8
0
 10
32
 20
29
 11
32
 21
30
  0
LINE
  8
0
 10
32
 20
30
 11
26
 21
30
  0
LINE
  8
0
 10
26
 20
30
 11
26
 21
29
  0
LINE
  8
0
 10
26
 20
29
 11
28.5
 21
29
  0
LINE
  8
0
 10
28.5
 20
29
 11
28.5
 21
23
  0
LINE
  8
0
 10
28.5
 20
23
 11
26
 21
23
  0
LINE
  8
0
 10
26
 20
23
 11
26
 21
22
  0
LINE
  8
0
 10
26
 20
22
 11
32
 21
22
  0
LINE
  8
0
 10
32
 20
22
 11
32
 21
23
  0
LINE
  8
0
 10
40
 20
23
 11
37.5
 21
23
  0
LINE
  8
0
 10
37.5
 20
23
 11
37.5
 21
29
  0
LINE
  8
0
 10
37.5
 20
29
 11
40
 21
29
  0
LINE
  8
0
 10
40
 20
29
 11
40
 21
30
  0
LINE
  8
0
 10
40
 20
30
 11
34
 21
30
  0
LINE
  8
0
 10
34
 20
30
 11
34
 21
29
  0
LINE
  8
0
 10
34
 20
29
 11
36.5
 21
29
  0
LINE
  8
0
 10
36.5
 20
29
 11
36.5
 21
23
  0
LINE
  8
0
 10
36.5
 20
23
 11
34
 21
23
  0
LINE
  8
0
 10
34
 20
23
 11
34
 21
22
  0
LINE
  8
0
 10
34
 20
22
 11
40
 21
22
  0
LINE
  8
0
 10
40
 20
22
 11
40
 21
23
  0
LINE
  8
0
 10
16
 20
23
 11
13.5
 21
23
  0
LINE
  8
0
 10
13.5
 20
23
 11
13.5
 21
29
  0
LINE
  8
0
 10
13.5
 20
29
 11
16
 21
29
  0
LINE
  8
0
 10
16
 20
29
 11
16
 21
30
  0
LINE
  8
0
 10
16
 20
30
 11
10
 21
30
  0
LINE
  8
0
 10
10
 20
30
 11
10
 21
29
  0
LINE
  8
0
 10
10
 20
29
 11
12.5
 21
29
  0
LINE
  8
0
 10
12.5
 20
29
 11
12.5
 21
23
  0
LINE
  8
0
 10
12.5
 20
23
 11
10
 21
23
  0
LINE
  8
0
 10
10
 20
23
 11
10
 21
22
  0
LINE
  8
0
 10
10
 20
22
 11
16
 21
22
  0
LINE
  8
0
 10
16
 20
22
 11
16
 21
23
  0
LINE
  8
0
 10
8
 20
13
 11
5.5
 21
13
  0
LINE
  8
0
 10
5.5
 20
13
 11
5.5
 21
19
  0
LINE
  8
0
 10
5.5
 20
19
 11
8
 21
19
  0
LINE
  8
0
 10
8
 20
19
 11
8
 21
20
  0
LINE
  8
0
 10
8
 20
20
 11
2
 21
20
  0
LINE
  8
0
 10
2
 20
20
 11
2
 21
19
  0
LINE
  8
0
 10
2
 20
19
 11
4.5
 21
19
  0
LINE
  8
0
 10
4.5
 20
19
 11
4.5
 21
13
  0
LINE
  8
0
 10
4.5
 20
13
 11
2
 21
13
  0
LINE
  8
0
 10
2
 20
13
 11
2
 21
12
  0
LINE
  8
0
 10
2
 20
12
 11
8
 21
12
  0
LINE
  8
0
 10
8
 20
12
 11
8
 21
13
  0
LINE
  8
0
 10
32
 20
13
 11
29.5
 21
13
  0
LINE
  8
0
 10
29.5
 20
13
 11
29.5
 21
19
  0
LINE
  8
0
 10
29.5
 20
19
 11
32
 21
19
  0
LINE
  8
0
 10
32
 20
19
 11
32
 21
20
  0
LINE
  8
0
 10
32
 20
20
 11
26
 21
20
  0
LINE
  8
0
 10
26
 20
20
 11
26
 21
19
  0
LINE
  8
0
 10
26
 20
19
 11
28.5
 21
19
  0
LINE
  8
0
 10
28.5
 20
19
 11
28.5
 21
13
  0
LINE
  8
0
 10
28.5
 20
13
 11
26
 21
13
  0
LINE
  8
0
 10
26
 20
13
 11
26
 21
12
  0
LINE
  8
0
 10
26
 20
12
 11
32
 21
12
  0
LINE
  8
0
 10
32
 20
12
 11
32
 21
13
  0
LINE
  8
0
 10
40
 20
13
 11
37.5
 21
13
  0
LINE
  8
0
 10
37.5
 20
13
 11
37.5
 21
19
  0
LINE
  8
0
 10
37.5
 20
19
 11
40
 21
19
  0
LINE
  8
0
 10
40
 20
19
 11
40
 21
20
  0
LINE
  8
0
 10
40
 20
20
 11
34
 21
20
  0
LINE
  8
0
 10
34
 20
20
 11
34
 21
19
  0
LINE
  8
0
 10
34
 20
19
 11
36.5
 21
19
  0
LINE
  8
0
 10
36.5
 20
19
 11
36.5
 21
13
  0
LINE
  8
0
 10
36.5
 20
13
 11
34
 21
13
  0
LINE
  8
0
 10
34
 20
13
 11
34
 21
12
  0
LINE
  8
0
 10
34
 20
12
 11
40
 21
12
  0
LINE
  8
0
 10
40
 20
12
 11
40
 21
13
  0
LINE
  8
0
 10
10
 20
13
 11
10
 21
12
  0
LINE
  8
0
 10
10
 20
12
 11
16
 21
12
  0
LINE
  8
0
 10
16
 20
12
 11
16
 21
13
  0
LINE
  8
0
 10
16
 20
13
 11
13.5
 21
13
  0
LINE
  8
0
 10
13.5
 20
13
 11
13.5
 21
19
  0
LINE
  8
0
 10
13.5
 20
19
 11
16
 21
19
  0
LINE
  8
0
 10
16
 20
19
 11
16
 21
20
  0
LINE
  8
0
 10
16
 20
20
 11
10
 21
20
  0
LINE
  8
0
 10
10
 20
20
 11
10
 21
19
  0
LINE
  8
0
 10
10
 20
19
 11
12.5
 21
19
  0
LINE
  8
0
 10
12.5
 20
19
 11
12.5
 21
13
  0
LINE
  8
0
 10
12.5
 20
13
 11
10
 21
13
  0
LINE
  8
0
 10
24
 20
13
 11
21.5
 21
13
  0
LINE
  8
0
 10
21.5
 20
13
 11
21.5
 21
19
  0
LINE
  8
0
 10
21.5
 20
19
 11
24
 21
19
  0
LINE
  8
0
 10
24
 20
19
 11
24
 21
20
  0
LINE
  8
0
 10
24
 20
20
 11
18
 21
20
  0
LINE
  8
0
 10
18
 20
20
 11
18
 21
19
  0
LINE
  8
0
 10
18
 20
19
 11
20.5
 21
19
  0
LINE
  8
0
 10
20.5
 20
19
 11
20.5
 21
13
  0
LINE
  8
0
 10
20.5
 20
13
 11
18
 21
13
  0
LINE
  8
0
 10
18
 20
13
 11
18
 21
12
  0
LINE
  8
0
 10
18
 20
12
 11
24
 21
12
  0
LINE
  8
0
 10
24
 20
12
 11
24
 21
13
  0
LINE
  8
0
 10
24
 20
3
 11
21.5
 21
3
  0
LINE
  8
0
 10
21.5
 20
3
 11
21.5
 21
9
  0
LINE
  8
0
 10
21.5
 20
9
 11
24
 21
9
  0
LINE
  8
0
 10
24
 20
9
 11
24
 21
10
  0
LINE
  8
0
 10
24
 20
10
 11
18
 21
10
  0
LINE
  8
0
 10
18
 20
10
 11
18
 21
9
  0
LINE
  8
0
 10
18
 20
9
 11
20.5
 21
9
  0
LINE
  8
0
 10
20.5
 20
9
 11
20.5
 21
3
  0
LINE
  8
0
 10
20.5
 20
3
 11
18
 21
3
  0
LINE
  8
0
 10
18
 20
3
 11
18
 21
2
  0
LINE
  8
0
 10
18
 20
2
 11
24
 21
2
  0
LINE
  8
0
 10
24
 20
2
 11
24
 21
3
  0
LINE
  8
0
 10
40
 20
3
 11
37.5
 21
3
  0
LINE
  8
0
 10
37.5
 20
3
 11
37.5
 21
9
  0
LINE
  8
0
 10
37.5
 20
9
 11
40
 21
9
  0
LINE
  8
0
 10
40
 20
9
 11
40
 21
10
  0
LINE
  8
0
 10
40
 20
10
 11
34
 21
10
  0
LINE
  8
0
 10
34
 20
10
 11
34
 21
9
  0
LINE
  8
0
 10
34
 20
9
 11
36.5
 21
9
  0
LINE
  8
0
 10
36.5
 20
9
 11
36.5
 21
3
  0
LINE
  8
0
 10
36.5
 20
3
 11
34
 21
3
  0
LINE
  8
0
 10
34
 20
3
 11
34
 21
2
  0
LINE
  8
0
 10
34
 20
2
 11
40
 21
2
  0
LINE
  8
0
 10
40
 20
2
 11
40
 21
3
  0
LINE
  8
0
 10
8
 20
3
 11
5.5
 21
3
  0
LINE
  8
0
 10
5.5
 20
3
 11
5.5
 21
9
  0
LINE
  8
0
 10
5.5
 20
9
 11
8
 21
9
  0
LINE
  8
0
 10
8
 20
9
 11
8
 21
10
  0
LINE
  8
0
 10
8
 20
10
 11
2
 21
10
  0
LINE
  8
0
 10
2
 20
10
 11
2
 21
9
  0
LINE
  8
0
 10
2
 20
9
 11
4.5
 21
9
  0
LINE
  8
0
 10
4.5
 20
9
 11
4.5
 21
3
  0
LINE
  8
0
 10
4.5
 20
3
 11
2
 21
3
  0
LINE
  8
0
 10
2
 20
3
 11
2
 21
2
  0
LINE
  8
0
 10
2
 20
2
 11
8
 21
2
  0
LINE
  8
0
 10
8
 20
2
 11
8
 21
3
  0
LINE
  8
0
 10
16
 20
3
 11
13.5
 21
3
  0
LINE
  8
0
 10
13.5
 20
3
 11
13.5
 21
9
  0
LINE
  8
0
 10
13.5
 20
9
 11
16
 21
9
  0
LINE
  8
0
 10
16
 20
9
 11
16
 21
10
  0
LINE
  8
0
 10
16
 20
10
 11
10
 21
10
  0
LINE
  8
0
 10
10
 20
10
 11
10
 21
9
  0
LINE
  8
0
 10
10
 20
9
 11
12.5
 21
9
  0
LINE
  8
0
 10
12.5
 20
9
 11
12.5
 21
3
  0
LINE
  8
0
 10
12.5
 20
3
 11
10
 21
3
  0
LINE
  8
0
 10
10
 20
3
 11
10
 21
2
  0
LINE
  8
0
 10
10
 20
2
 11
16
 21
2
  0
LINE
  8
0
 10
16
 20
2
 11
16
 21
3
  0
LINE
  8
0
 10
32
 20
3
 11
29.5
 21
3
  0
LINE
  8
0
 10
29.5
 20
3
 11
29.5
 21
9
  0
LINE
  8
0
 10
29.5
 20
9
 11
32
 21
9
  0
LINE
  8
0
 10
32
 20
9
 11
32
 21
10
  0
LINE
  8
0
 10
32
 20
10
 11
26
 21
10
  0
LINE
  8
0
 10
26
 20
10
 11
26
 21
9
  0
LINE
  8
0
 10
26
 20
9
 11
28.5
 21
9
  0
LINE
  8
0
 10
28.5
 20
9
 11
28.5
 21
3
  0
LINE
  8
0
 10
28.5
 20
3
 11
26
 21
3
  0
LINE
  8
0
 10
26
 20
3
 11
26
 21
2
  0
LINE
  8
0
 10
26
 20
2
 11
32
 21
2
  0
LINE
  8
0
 10
32
 20
2
 11
32
 21
3
  0
LINE
  8
0
 10
12.3333
 20
53
 11
12.3333
 21
52
  0
LINE
  8
0
 10
12.3333
 20
52
 11
21.6667
 21
52
  0
LINE
  8
0
 10
21.6667
 20
52
 11
21.6667
 21
53
  0
LINE
  8
0
 10
21.6667
 20
53
 11
20.1667
 21
53
  0
LINE
  8
0
 10
20.1667
 20
53
 11
20.1667
 21
59
  0
LINE
  8
0
 10
20.1667
 20
59
 11
21.6667
 21
59
  0
LINE
  8
0
 10
21.6667
 20
59
 11
21.6667
 21
60
  0
LINE
  8
0
 10
21.6667
 20
60
 11
12.3333
 21
60
  0
LINE
  8
0
 10
12.3333
 20
60
 11
12.3333
 21
59
  0
LINE
  8
0
 10
12.3333
 20
59
 11
13.8333
 21
59
  0
LINE
  8
0
 10
13.8333
 20
59
 11
13.8333
 21
53
  0
LINE
  8
0
 10
13.8333
 20
53
 11
12.3333
 21
53
  0
LINE
  8
0
 10
19.1667
 20
53
 11
17.5
 21
53
  0
LINE
  8
0
 10
17.5
 20
53
 11
17.5
 21
59
  0
LINE
  8
0
 10
17.5
 20
59
 11
19.1667
 21
59
  0
LINE
  8
0
 10
19.1667
 20
59
 11
19.1667
 21
53
  0
LINE
  8
0
 10
16.5
 20
53
 11
14.8333
 21
53
  0
LINE
  8
0
 10
14.8333
 20
53
 11
14.8333
 21
59
  0
LINE
  8
0
 10
14.8333
 20
59
 11
16.5
 21
59
  0
LINE
  8
0
 10
16.5
 20
59
 11
16.5
 21
53
  0
LINE
  8
0
 10
26.8333
 20
53
 11
26.8333
 21
59
  0
LINE
  8
0
 10
26.8333
 20
59
 11
25.8333
 21
59
  0
LINE
  8
0
 10
25.8333
 20
59
 11
25.8333
 21
53
  0
LINE
  8
0
 10
25.8333
 20
53
 11
24.3333
 21
53
  0
LINE
  8
0
 10
24.3333
 20
53
 11
24.3333
 21
52
  0
LINE
  8
0
 10
24.3333
 20
52
 11
33.6667
 21
52
  0
LINE
  8
0
 10
33.6667
 20
52
 11
33.6667
 21
53
  0
LINE
  8
0
 10
33.6667
 20
53
 11
32.1667
 21
53
  0
LINE
  8
0
 10
32.1667
 20
53
 11
32.1667
 21
59
  0
LINE
  8
0
 10
32.1667
 20
59
 11
33.6667
 21
59
  0
LINE
  8
0
 10
33.6667
 20
59
 11
33.6667
 21
60
  0
LINE
  8
0
 10
33.6667
 20
60
 11
24.3333
 21
60
  0
LINE
  8
0
 10
24.3333
 20
60
 11
24.3333
 21
59
  0
LINE
  8
0
 10
24.3333
 20
59
 11
28.5
 21
59
  0
LINE
  8
0
 10
28.5
 20
59
 11
28.5
 21
53
  0
LINE
  8
0
 10
28.5
 20
53
 11
26.8333
 21
53
  0
LINE
  8
0
 10
31.1667
 20
53
 11
29.5
 21
53
  0
LINE
  8
0
 10
29.5
 20
53
 11
29.5
 21
59
  0
LINE
  8
0
 10
29.5
 20
59
 11
31.1667
 21
59
  0
LINE
  8
0
 10
31.1667
 20
59
 11
31.1667
 21
53
  0
ENDSEC
  0
SECTION
  2
OBJECTS
  0
DICTIONARY
  0
ENDSEC
  0
EOF
